<?xml version="1.0" encoding="utf-8"?>
<!-- Generator: Adobe Illustrator 15.0.0, SVG Export Plug-In . SVG Version: 6.00 Build 0)  -->
<!DOCTYPE svg PUBLIC "-//W3C//DTD SVG 1.1//EN" "http://www.w3.org/Graphics/SVG/1.1/DTD/svg11.dtd">
<svg version="1.1" id="Layer_1" xmlns="http://www.w3.org/2000/svg" xmlns:xlink="http://www.w3.org/1999/xlink" x="0px" y="0px"
	 width="405px" height="200px" viewBox="0 0 405 200" enable-background="new 0 0 405 200" xml:space="preserve">
<g id="XMLID_253_">
	<g id="XMLID_93_" opacity="0.1">
		<path id="XMLID_71_" d="M404.652,36.917L404.652,36.917c0,13.056-10.584,23.639-23.641,23.639h-55.24l0,0
			c0,18.155-14.717,32.871-32.869,32.871h-24.924c-10.131,0-18.338,8.209-18.338,18.336l0,0c0,10.129,8.207,18.338,18.338,18.338
			h101.27c10.568,0,19.139,8.566,19.139,19.139l0,0c0,10.57-8.568,19.139-19.139,19.139h-46.223
			c-16.369,0-29.625,13.287-29.59,29.652l0,0l-200.04,0.422l0.591-35.084H22.92c-12.658,0-22.92-10.26-22.92-22.92l0,0
			c0-12.656,10.262-22.92,22.92-22.92h55.151c11.671,0,21.134-9.46,21.134-21.132l0,0c0-11.673-9.462-21.135-21.134-21.135h-5.11
			c-17.116,0-30.991-13.876-30.991-30.991l0,0c0-17.115,13.875-30.991,30.991-30.991h308.051
			C394.068,13.279,404.652,23.863,404.652,36.917z"/>
	</g>
	<g id="XMLID_459_">
		<g id="XMLID_510_">
			<g id="XMLID_518_">
				<path fill="#FFFFFF" d="M294.404,117.369l16.469,16.473v57.502c0,2.604-2.107,4.712-4.709,4.712h-49.178
					c-2.604,0-4.709-2.108-4.709-4.712v-69.262c0-2.602,2.105-4.713,4.709-4.713H294.404z"/>
			</g>
			<g id="XMLID_515_">
				<polygon fill="#5FB0E5" points="294.404,133.841 294.404,117.369 310.873,133.841 				"/>
			</g>
			<g id="XMLID_514_">
				<path id="XMLID_806_" fill="#0686D8" d="M310.873,135.388h-14.824c-1.76,0-3.191-1.432-3.191-3.193v-14.826h3.096v14.826
					l14.92,0.1V135.388L310.873,135.388z"/>
			</g>
			<g id="XMLID_512_">
				<path id="XMLID_805_" fill="#0686D8" d="M306.164,197.603h-49.178v-3.096h49.178c1.744,0,3.162-1.42,3.162-3.164v-56.861
					l-15.562-15.566h-36.777c-1.744,0-3.162,1.42-3.162,3.166v22.193h-3.094v-22.193c0-3.453,2.809-6.262,6.256-6.262h38.059
					l17.377,17.381v58.143C312.422,194.794,309.613,197.603,306.164,197.603z"/>
			</g>
		</g>
		<g id="XMLID_501_">
			<g id="XMLID_509_">
				<path fill="#D2E9F7" d="M303.996,112.574l16.473,16.471v57.5c0,2.604-2.107,4.713-4.711,4.713h-49.176
					c-2.604,0-4.711-2.108-4.711-4.713v-69.262c0-2.6,2.107-4.709,4.711-4.709H303.996z"/>
			</g>
			<g id="XMLID_508_">
				<polygon fill="#5FB0E5" points="303.996,129.044 303.996,112.574 320.467,129.044 				"/>
			</g>
			<g id="XMLID_507_">
				<path id="XMLID_804_" fill="#0686D8" d="M320.467,130.591h-14.824c-1.762,0-3.195-1.434-3.195-3.193v-14.824h3.096v14.824
					l14.926,0.098v3.096H320.467z"/>
			</g>
			<g id="XMLID_506_">
				<rect id="XMLID_803_" x="270.654" y="135.533" fill="#0686D8" width="41.904" height="3.096"/>
			</g>
			<g id="XMLID_505_">
				<rect id="XMLID_802_" x="270.654" y="144.876" fill="#0686D8" width="41.904" height="3.094"/>
			</g>
			<g id="XMLID_504_">
				<rect id="XMLID_801_" x="270.654" y="154.22" fill="#0686D8" width="41.904" height="3.094"/>
			</g>
			<g id="XMLID_503_">
				<rect id="XMLID_800_" x="270.654" y="163.564" fill="#0686D8" width="41.904" height="3.096"/>
			</g>
			<g id="XMLID_251_">
				<path id="XMLID_799_" fill="#0686D8" d="M315.758,192.804h-2.168v-3.094h2.168c1.744,0,3.162-1.42,3.162-3.166v-56.859
					l-15.564-15.564h-31.617v-3.095h32.898l17.379,17.378v58.141C322.016,189.996,319.207,192.804,315.758,192.804z"/>
			</g>
		</g>
		<g id="XMLID_470_">
			<g id="XMLID_500_">
				<path fill="#FFFFFF" d="M313.59,119.767l16.473,16.471v57.502c0,2.604-2.111,4.713-4.711,4.713h-49.176
					c-2.604,0-4.715-2.109-4.715-4.713v-69.262c0-2.602,2.111-4.711,4.715-4.711H313.59z"/>
			</g>
			<g id="XMLID_499_">
				<polygon fill="#5FB0E5" points="313.59,136.238 313.59,119.767 330.062,136.238 				"/>
			</g>
			<g id="XMLID_498_">
				<path id="XMLID_798_" fill="#0686D8" d="M330.062,137.787h-14.824c-1.762,0-3.195-1.434-3.195-3.193v-14.825h3.094v14.825
					l14.926,0.099V137.787L330.062,137.787z"/>
			</g>
			<g id="XMLID_497_">
				<rect id="XMLID_797_" x="280.246" y="142.728" fill="#0686D8" width="41.906" height="3.094"/>
			</g>
			<g id="XMLID_496_">
				<rect id="XMLID_796_" x="280.246" y="152.072" fill="#0686D8" width="41.906" height="3.096"/>
			</g>
			<g id="XMLID_493_">
				<rect id="XMLID_795_" x="280.246" y="161.416" fill="#0686D8" width="28.178" height="3.094"/>
			</g>
			<g id="XMLID_492_">
				<rect id="XMLID_794_" x="280.246" y="170.759" fill="#0686D8" width="28.178" height="3.096"/>
			</g>
			<g id="XMLID_250_">
				<path id="XMLID_793_" fill="#0686D8" d="M273.008,186.628h-3.094v-62.15c0-3.451,2.809-6.258,6.262-6.258h38.055l17.379,17.377
					v12.754h-3.094v-11.473l-15.566-15.562h-36.773c-1.746,0-3.168,1.418-3.168,3.162V186.628L273.008,186.628z"/>
			</g>
		</g>
	</g>
	<g id="XMLID_139_">
		<g id="XMLID_193_">
			<path id="XMLID_1035_" fill="#FFFFFF" d="M165.613,198.453H66.084c-2.132,0-3.859-1.729-3.859-3.861V54.751
				c0-2.132,1.728-3.858,3.859-3.858h99.529c2.132,0,3.859,1.727,3.859,3.858v139.84
				C169.473,196.724,167.745,198.453,165.613,198.453z"/>
		</g>
		<g id="XMLID_183_">
			<rect id="XMLID_1034_" x="62.225" y="50.893" fill="#5FB0E5" width="107.248" height="36.693"/>
		</g>
		<g id="XMLID_182_">
			<circle id="XMLID_73_" fill="#9ECFEF" cx="85.703" cy="68.945" r="13.502"/>
		</g>
		<g id="XMLID_178_">
			<g id="XMLID_179_">
				<path id="XMLID_75_" fill="#D2E9F7" d="M81.041,189.359h-0.963v-5.775h0.963V189.359z M81.041,177.81h-0.963v-5.777h0.963
					V177.81z M81.041,166.257h-0.963v-5.775h0.963V166.257z M81.041,154.707h-0.963v-5.776h0.963V154.707z M81.041,143.156h-0.963
					v-5.777h0.963V143.156z M81.041,131.605h-0.963v-5.777h0.963V131.605z M81.041,120.052h-0.963v-5.775h0.963V120.052z
					 M81.041,108.501h-0.963v-5.776h0.963V108.501z"/>
			</g>
		</g>
		<g id="XMLID_177_">
			<circle id="XMLID_74_" fill="#D2E9F7" cx="80.56" cy="174.466" r="3.551"/>
		</g>
		<g id="XMLID_174_">
			<path id="XMLID_792_" fill="#0686D8" d="M63.772,198.72h-3.095V54.751c0-2.98,2.426-5.406,5.407-5.406h99.529
				c2.981,0,5.407,2.426,5.407,5.406v50.097h-3.095V54.751c0-1.273-1.038-2.311-2.312-2.311H66.084
				c-1.274,0-2.312,1.038-2.312,2.311V198.72z"/>
		</g>
		<g id="XMLID_155_">
			<rect id="XMLID_791_" x="62.225" y="86.039" fill="#0686D8" width="107.248" height="3.095"/>
		</g>
		<g id="XMLID_151_">
			<circle id="XMLID_76_" fill="#D2E9F7" cx="80.56" cy="140.031" r="3.551"/>
		</g>
		<g id="XMLID_150_">
			<circle id="XMLID_78_" fill="#D2E9F7" cx="80.56" cy="105.596" r="3.551"/>
		</g>
		<g id="XMLID_142_">
			<rect id="XMLID_790_" x="90.992" y="104.067" fill="#0686D8" width="66.891" height="3.095"/>
		</g>
		<g id="XMLID_157_">
			<rect id="XMLID_789_" x="90.992" y="135.832" fill="#0686D8" width="66.891" height="3.094"/>
		</g>
		<g id="XMLID_161_">
			<rect id="XMLID_788_" x="90.992" y="142.033" fill="#0686D8" width="66.891" height="3.096"/>
		</g>
		<g id="XMLID_162_">
			<rect id="XMLID_787_" x="90.992" y="148.236" fill="#0686D8" width="66.891" height="3.096"/>
		</g>
		<g id="XMLID_164_">
			<rect id="XMLID_786_" x="91.051" y="169.369" fill="#0686D8" width="66.892" height="3.096"/>
		</g>
		<g id="XMLID_176_">
			<rect id="XMLID_785_" x="90.992" y="175.171" fill="#0686D8" width="66.891" height="3.096"/>
		</g>
		<g id="XMLID_181_">
			<rect id="XMLID_784_" x="90.932" y="180.974" fill="#0686D8" width="46.112" height="3.096"/>
		</g>
		<g id="XMLID_163_">
			<rect id="XMLID_783_" x="90.992" y="154.437" fill="#0686D8" width="24.857" height="3.096"/>
		</g>
		<g id="XMLID_141_">
			<rect id="XMLID_782_" x="90.992" y="110.339" fill="#0686D8" width="66.891" height="3.094"/>
		</g>
		<g id="XMLID_144_">
			<rect id="XMLID_781_" x="90.992" y="116.611" fill="#0686D8" width="66.891" height="3.094"/>
		</g>
		<g id="XMLID_148_">
			<rect id="XMLID_780_" x="90.992" y="122.884" fill="#0686D8" width="24.857" height="3.096"/>
		</g>
	</g>
	<g id="XMLID_184_">
		<g id="XMLID_186_">
			<path id="XMLID_779_" fill="#0686D8" d="M305.172,7.503h-8.816c-0.854,0-1.547-0.693-1.547-1.547s0.693-1.547,1.547-1.547h8.816
				c0.854,0,1.547,0.693,1.547,1.547C306.717,6.81,306.025,7.503,305.172,7.503z"/>
		</g>
		<g id="XMLID_185_">
			<path id="XMLID_778_" fill="#0686D8" d="M300.764,11.913c-0.855,0-1.549-0.693-1.549-1.547V1.547
				c0-0.854,0.693-1.547,1.549-1.547c0.854,0,1.547,0.693,1.547,1.547v8.819C302.311,11.22,301.617,11.913,300.764,11.913z"/>
		</g>
	</g>
	<g id="XMLID_237_">
		<g id="XMLID_239_">
			<path id="XMLID_777_" fill="#0686D8" d="M35.934,102.229h-8.818c-0.854,0-1.547-0.692-1.547-1.547
				c0-0.854,0.693-1.547,1.547-1.547h8.818c0.854,0,1.547,0.693,1.547,1.547C37.482,101.537,36.788,102.229,35.934,102.229z"/>
		</g>
		<g id="XMLID_238_">
			<path id="XMLID_775_" fill="#0686D8" d="M31.525,106.638c-0.854,0-1.547-0.693-1.547-1.547v-8.819
				c0-0.854,0.693-1.547,1.547-1.547s1.547,0.693,1.547,1.547v8.819C33.072,105.944,32.379,106.638,31.525,106.638z"/>
		</g>
	</g>
	<g id="XMLID_210_">
		<g id="XMLID_243_">
			<path id="XMLID_774_" fill="#0686D8" d="M370.539,98.091c-0.395,0-0.793-0.151-1.096-0.453c-0.605-0.604-0.605-1.583,0-2.188
				l6.238-6.234c0.604-0.604,1.582-0.604,2.188,0c0.604,0.604,0.604,1.584,0,2.188l-6.238,6.233
				C371.328,97.94,370.934,98.091,370.539,98.091z"/>
		</g>
		<g id="XMLID_213_">
			<path id="XMLID_773_" fill="#0686D8" d="M376.773,98.091c-0.396,0-0.791-0.151-1.092-0.453l-6.238-6.233
				c-0.605-0.604-0.605-1.583,0-2.188c0.604-0.604,1.584-0.604,2.188,0l6.238,6.234c0.604,0.604,0.604,1.583,0,2.188
				C377.566,97.94,377.172,98.091,376.773,98.091z"/>
		</g>
	</g>
	<g id="XMLID_212_">
		<g id="XMLID_236_">
			<path id="XMLID_772_" fill="#0686D8" d="M118.261,34.67c-0.396,0-0.792-0.151-1.094-0.453c-0.604-0.604-0.604-1.583,0-2.188
				l6.234-6.236c0.604-0.604,1.583-0.604,2.188,0s0.604,1.583,0,2.188l-6.234,6.236C119.053,34.519,118.657,34.67,118.261,34.67z"/>
		</g>
		<g id="XMLID_235_">
			<path id="XMLID_770_" fill="#0686D8" d="M124.496,34.67c-0.396,0-0.792-0.151-1.094-0.453l-6.234-6.236
				c-0.604-0.604-0.604-1.583,0-2.188s1.583-0.604,2.188,0l6.234,6.236c0.604,0.604,0.604,1.583,0,2.188
				C125.288,34.519,124.892,34.67,124.496,34.67z"/>
		</g>
	</g>
	<g id="XMLID_201_">
		<rect id="XMLID_767_" x="162.216" y="31.575" fill="#0686D8" width="104.64" height="3.095"/>
	</g>
	<g id="XMLID_199_">
		<rect id="XMLID_766_" x="280.246" y="100.497" fill="#0686D8" width="73.844" height="3.094"/>
	</g>
	<g id="XMLID_240_">
		<rect id="XMLID_765_" x="13.065" y="71.75" fill="#0686D8" width="36.921" height="3.095"/>
	</g>
	<g id="XMLID_135_">
		<rect id="XMLID_764_" x="239.076" y="4.408" fill="#0686D8" width="35.891" height="3.095"/>
	</g>
	<g id="XMLID_105_">
		<rect id="XMLID_762_" x="278.059" y="4.408" fill="#0686D8" width="7.367" height="3.095"/>
	</g>
	<g id="XMLID_143_">
		<circle id="XMLID_72_" fill="#0686D8" cx="345.746" cy="82.374" r="3.847"/>
	</g>
	<g id="XMLID_246_">
		<circle id="XMLID_79_" fill="#0686D8" cx="68.355" cy="28.253" r="3.846"/>
	</g>
	<g id="XMLID_244_">
		<circle id="XMLID_80_" fill="#0686D8" cx="245.619" cy="84.369" r="1.969"/>
	</g>
	<g id="XMLID_245_">
		<circle id="XMLID_81_" fill="#0686D8" cx="178.241" cy="7.926" r="1.969"/>
	</g>
	<g id="XMLID_247_">
		<circle id="XMLID_82_" fill="#0686D8" cx="49.986" cy="108.378" r="1.969"/>
	</g>
	<g id="XMLID_67_">
		<g id="XMLID_189_">
			<rect id="XMLID_761_" x="40.938" y="196.906" fill="#0686D8" width="337.982" height="3.094"/>
		</g>
		<g id="XMLID_188_">
			<rect id="XMLID_758_" x="31.525" y="196.906" fill="#0686D8" width="5.651" height="3.094"/>
		</g>
		<g id="XMLID_187_">
			<rect id="XMLID_757_" x="382.145" y="196.906" fill="#0686D8" width="12.48" height="3.094"/>
		</g>
	</g>
	<g id="XMLID_84_" opacity="0.3">
		<g id="XMLID_252_">
			<path id="XMLID_86_" fill="#0686D8" d="M171.021,97.974c-0.249,0.806-0.423,1.642-0.423,2.529v4.346h0.423V97.974z"/>
		</g>
		<g id="XMLID_254_">
			<path id="XMLID_87_" fill="#0686D8" d="M169.473,194.591v-87.76h-48.669v91.621h1.547h1.547h41.716
				C167.745,198.453,169.473,196.724,169.473,194.591z"/>
		</g>
	</g>
	<g id="XMLID_101_">
		<g id="XMLID_98_">
			<rect x="126.477" y="108.378" fill="#5FB0E5" width="141.635" height="90.074"/>
		</g>
		<g id="XMLID_97_" opacity="0.3">
			<rect id="XMLID_216_" x="126.477" y="110.246" fill="#0686D8" width="141.635" height="35.117"/>
		</g>
		<g id="XMLID_96_">
			<rect x="126.477" y="108.378" fill="#9ECFEF" width="141.635" height="35.117"/>
		</g>
		<g id="XMLID_95_">
			<rect x="191.678" y="135.259" fill="#D2E9F7" width="11.233" height="18.154"/>
		</g>
		<g id="XMLID_88_">
			<path id="XMLID_755_" fill="#0686D8" d="M219.863,108.894h-3.094v-8.391c0-3.049-2.48-5.529-5.527-5.529h-27.896
				c-3.049,0-5.527,2.48-5.527,5.529v8.391h-3.095v-8.391c0-4.755,3.868-8.625,8.622-8.625h27.896c4.754,0,8.621,3.869,8.621,8.625
				V108.894z"/>
		</g>
		<g id="XMLID_248_">
			<polygon id="XMLID_754_" fill="#0686D8" points="128.025,198.453 124.93,198.453 124.93,106.832 269.66,106.832 269.66,186.63 
				266.564,186.63 266.564,109.925 128.025,109.925 			"/>
		</g>
	</g>
	<g id="XMLID_140_">
		<g id="XMLID_138_">
			<rect id="XMLID_1033_" x="193.404" y="191.615" fill="#5FB0E5" width="7.944" height="5.043"/>
		</g>
		<g id="XMLID_137_">
			<path id="XMLID_751_" fill="#0686D8" d="M202.896,198.205h-11.04v-8.137h11.04V198.205z M194.95,195.111h4.852v-1.949h-4.852
				V195.111z"/>
		</g>
		<g id="XMLID_136_">
			<rect id="XMLID_750_" x="289.699" y="192.589" fill="#0686D8" width="6.471" height="3.096"/>
		</g>
		<g id="XMLID_133_">
			<polygon id="XMLID_749_" fill="#0686D8" points="203.371,190.363 200.278,190.363 200.278,184.058 238.783,184.058 
				238.783,187.154 203.371,187.154 			"/>
		</g>
		<g id="XMLID_116_">
			<path fill="#D2E9F7" d="M282.699,198.453h-81.212v-8.633h81.212l10.738,4.086c0.215,0.08,0.215,0.381,0,0.461L282.699,198.453z"
				/>
		</g>
		<g id="XMLID_115_">
			<rect id="XMLID_1032_" x="201.487" y="189.82" fill="#FFFFFF" width="81.212" height="8.633"/>
		</g>
		<g id="XMLID_112_">
			<rect x="245.207" y="189.82" fill="#5FB0E5" width="27.395" height="8.633"/>
		</g>
		<g id="XMLID_109_">
			<rect x="245.207" y="189.82" fill="#D2E9F7" width="27.395" height="4.316"/>
		</g>
		<g id="XMLID_106_">
			<path id="XMLID_743_" fill="#0686D8" d="M282.984,200H199.94v-11.729l83.312,0.102l10.738,4.086
				c0.697,0.267,1.152,0.92,1.156,1.67c0,0.75-0.447,1.41-1.148,1.685L282.984,200z M203.033,196.906h79.383l7.277-2.77l-7.277-2.77
				h-79.383V196.906z"/>
		</g>
		<g id="XMLID_104_">
			<rect id="XMLID_742_" x="243.66" y="190.363" fill="#0686D8" width="3.094" height="7.547"/>
		</g>
		<g id="XMLID_103_">
			<rect id="XMLID_741_" x="269.744" y="190.363" fill="#0686D8" width="3.096" height="7.547"/>
		</g>
		<g id="XMLID_102_">
			<rect id="XMLID_740_" x="281.152" y="190.363" fill="#0686D8" width="3.094" height="7.545"/>
		</g>
	</g>
	<g id="XMLID_474_">
		<g id="XMLID_491_">
			<path id="XMLID_90_" fill="#9ECFEF" d="M370.539,152.335h-44.373v13.492c0,9.59,3.605,18.832,10.098,25.891l0,0v6.734h24.178
				v-6.734l0,0c6.492-7.059,10.098-16.301,10.098-25.891V152.335L370.539,152.335z"/>
		</g>
		<g id="XMLID_490_">
			<path id="XMLID_91_" fill="#D2E9F7" d="M360.941,152.335v13.492c0,9.59-3.605,18.832-10.102,25.891l0,0v6.734h5.217v-6.734l0,0
				c6.496-7.059,10.098-16.301,10.098-25.891v-13.492H360.941z"/>
		</g>
		<g id="XMLID_489_">
			<path id="XMLID_739_" fill="#0686D8" d="M361.518,200h-27.27v-7.684c-6.52-7.305-10.104-16.686-10.104-26.488v-15.039h47.469
				v15.039c0,2.846-0.307,5.701-0.914,8.484l-3.023-0.662c0.559-2.564,0.844-5.197,0.844-7.822v-11.943h-41.277v11.943
				c0,9.227,3.441,18.053,9.691,24.844l0.408,0.443v5.791h21.078v-5.791l0.408-0.443c1.186-1.287,2.291-2.678,3.283-4.133
				l2.555,1.75c-0.963,1.406-2.02,2.76-3.148,4.027V200L361.518,200z"/>
		</g>
		<g id="XMLID_488_">
			<path id="XMLID_738_" fill="#0686D8" d="M366.332,185.638l-2.684-1.539c1.221-2.133,2.234-4.395,3.006-6.721l2.938,0.975
				C368.754,180.876,367.658,183.328,366.332,185.638z"/>
		</g>
		<g id="XMLID_487_">
			<path id="XMLID_737_" fill="#0686D8" d="M327.951,179.412h-7.297c-6.086,0-11.037-4.951-11.037-11.033
				c0-6.086,4.951-11.035,11.037-11.035h4.686v3.095h-4.686c-4.381,0-7.943,3.562-7.943,7.94c0,4.377,3.562,7.938,7.943,7.938h7.297
				V179.412z"/>
		</g>
		<g id="XMLID_486_">
			<path id="XMLID_736_" fill="#0686D8" d="M343.818,147.525h-3.094v-2.646c0-4.774,3.885-8.662,8.664-8.662h6.551
				c0.557,0,1.012-0.455,1.012-1.014s-0.455-1.012-1.012-1.012h-20.615c-2.139,0-3.879-1.74-3.879-3.881
				c0-2.137,1.74-3.877,3.879-3.877h8.668v3.094h-8.668c-0.43,0-0.785,0.354-0.785,0.783c0,0.434,0.355,0.787,0.785,0.787h20.615
				c2.266,0,4.105,1.842,4.105,4.105c0,2.266-1.842,4.106-4.105,4.106h-6.551c-3.07,0-5.57,2.498-5.57,5.567V147.525z"/>
		</g>
		<g id="XMLID_475_">
			<path id="XMLID_735_" fill="#0686D8" d="M355.006,130.009h-7.455v-3.096h7.455c0.592,0,1.076-0.482,1.076-1.076
				c0-0.592-0.484-1.074-1.076-1.074h-19.17c-2.422,0-4.391-1.969-4.391-4.391s1.969-4.392,4.391-4.392h27.877v3.095h-27.877
				c-0.713,0-1.297,0.582-1.297,1.297s0.584,1.295,1.297,1.295h19.17c2.301,0,4.17,1.871,4.17,4.17S357.307,130.009,355.006,130.009
				z"/>
		</g>
	</g>
</g>
</svg>
