<?xml version="1.0" encoding="utf-8"?>
<!-- Generator: Adobe Illustrator 15.0.0, SVG Export Plug-In . SVG Version: 6.00 Build 0)  -->
<!DOCTYPE svg PUBLIC "-//W3C//DTD SVG 1.1//EN" "http://www.w3.org/Graphics/SVG/1.1/DTD/svg11.dtd">
<svg version="1.1" id="Layer_1" xmlns="http://www.w3.org/2000/svg" xmlns:xlink="http://www.w3.org/1999/xlink" x="0px" y="0px"
	 width="406px" height="200px" viewBox="-0.5 0 406 200" enable-background="new -0.5 0 406 200" xml:space="preserve">
<g id="XMLID_222_" opacity="0.1">
	<path id="XMLID_223_" d="M54.038,25.003h281.878c9.438,0,17.089,7.652,17.089,17.089l0,0c0,9.438-7.651,17.089-17.089,17.089
		h-32.12c-8.218,0-14.882,6.663-14.882,14.882l0,0c0,8.218,6.664,14.881,14.882,14.881h86.216c9.085,0,16.449,7.366,16.449,16.453
		l0,0c0,9.086-7.364,16.449-16.449,16.449h-43.198l0,0c0,16.465-13.346,29.811-29.813,29.811l0,0
		c-7.27,0-13.161,5.896-13.161,13.166v35.1H114.588v-2.891c0-17.518-14.108-31.768-31.624-31.939l-65.404-0.648
		c-10.003-0.1-18.06-8.238-18.06-18.24l0,0c0-10.074,8.167-18.24,18.241-18.24h65.283l0,0c0-16.609,13.465-30.075,30.073-30.075
		h2.55c10.11,0,18.306-8.195,18.306-18.306l0,0c0-10.11-8.195-18.306-18.306-18.306H54.038c-10.016,0-18.135-8.12-18.135-18.137l0,0
		C35.903,33.125,44.022,25.003,54.038,25.003z"/>
</g>
<g id="XMLID_217_">
	<g id="XMLID_300_">
		<path id="XMLID_1041_" fill="#FFFFFF" d="M134.268,185.822l-35.7-11.252c-1.102-0.348-1.713-1.521-1.365-2.623l11.252-35.701
			c0.348-1.1,1.521-1.713,2.623-1.365l35.701,11.252c1.101,0.348,1.713,1.521,1.365,2.623l-11.253,35.701
			C136.544,185.558,135.369,186.169,134.268,185.822z"/>
	</g>
	<g id="XMLID_221_">
		
			<rect id="XMLID_1040_" x="107.126" y="144.358" transform="matrix(0.9537 0.3006 -0.3006 0.9537 53.4755 -29.5244)" fill="#5FB0E5" width="31.093" height="29.278"/>
	</g>
	<g id="XMLID_220_">
		<path id="XMLID_918_" fill="#0686D8" d="M106.224,148.224l-2.812-0.887l3.501-11.104c0.322-1.023,1.023-1.859,1.976-2.355
			c0.95-0.496,2.038-0.594,3.062-0.27l6.785,2.451l-1.002,2.771l-6.728-2.43c-0.215-0.066-0.503-0.039-0.756,0.09
			c-0.254,0.133-0.441,0.355-0.526,0.629L106.224,148.224z"/>
	</g>
</g>
<g id="XMLID_482_">
	<path id="XMLID_211_" fill="#FFFFFF" d="M137.545,177.353h-0.399c-1.759-6.059-7.339-10.49-13.965-10.49
		c-2.892,0-5.58,0.854-7.846,2.309c-1.471-9.547-9.695-16.863-19.652-16.863c-8.938,0-16.5,5.891-19.018,14
		c-1.135-0.305-2.321-0.482-3.553-0.482c-6.82,0-12.459,4.998-13.492,11.527h-2.227c-5.615,0-10.211,4.594-10.211,10.211v0.754
		c0,5.615,4.596,10.209,10.211,10.209h80.151c5.615,0,10.21-4.594,10.21-10.209v-0.754
		C147.755,181.947,143.16,177.353,137.545,177.353z"/>
</g>
<g id="XMLID_210_">
	<path id="XMLID_913_" fill="#0686D8" d="M137.545,200.001H57.394c-6.443,0-11.685-5.244-11.685-11.684v-0.754
		c0-6.443,5.241-11.686,11.685-11.686h1.02c1.842-7.566,9.236-12.727,17.289-11.295c3.146-8.277,11.014-13.748,19.98-13.748
		c10.614,0,19.492,7.617,21.109,18.111l-2.913,0.449c-1.395-9.045-9.048-15.613-18.196-15.613c-8.126,0-15.202,5.209-17.609,12.963
		l-0.422,1.355l-1.369-0.369c-7.268-1.961-14.102,2.867-15.206,9.852l-0.196,1.244h-3.486c-4.817,0-8.736,3.918-8.736,8.736v0.754
		c0,4.816,3.919,8.736,8.736,8.736h80.151V200.001z"/>
</g>
<g id="XMLID_480_">
	<path id="XMLID_912_" fill="#0686D8" d="M107.413,168.361c-2.801-4.314-7.538-6.891-12.671-6.891c-2.715,0-5.378,0.727-7.702,2.104
		l-1.502-2.537c2.777-1.646,5.961-2.516,9.204-2.516c6.136,0,11.796,3.078,15.143,8.236L107.413,168.361z"/>
</g>
<g id="XMLID_479_">
	<path id="XMLID_911_" fill="#0686D8" d="M81.929,172.853H78.98c0-3.094-2.518-5.613-5.612-5.613v-2.947
		C78.089,164.292,81.929,168.132,81.929,172.853z"/>
</g>
<g id="XMLID_199_">
	<g id="XMLID_209_">
		<path fill="#FFFFFF" d="M96.075,127.083c0.261,1.504-1.295,3.027-3.472,3.404c-2.18,0.375-4.153-0.537-4.413-2.043
			c-0.262-1.5,1.294-3.025,3.472-3.402C93.839,124.666,95.815,125.58,96.075,127.083z"/>
	</g>
	<g id="XMLID_207_">
		<path id="XMLID_908_" fill="#0686D8" d="M91.614,132.046c-2.49,0-4.527-1.336-4.877-3.348c-0.209-1.201,0.244-2.451,1.242-3.43
			c0.867-0.85,2.086-1.445,3.432-1.68c3.027-0.514,5.711,0.902,6.115,3.242h0.002c0.207,1.201-0.246,2.451-1.243,3.43
			c-0.867,0.848-2.086,1.445-3.432,1.678C92.433,132.011,92.019,132.046,91.614,132.046z M92.63,126.431
			c-0.227,0-0.467,0.02-0.718,0.064c-0.749,0.131-1.431,0.449-1.869,0.879c-0.14,0.139-0.458,0.49-0.401,0.818
			c0.089,0.508,1.221,1.1,2.711,0.84c0.75-0.129,1.432-0.449,1.869-0.879c0.14-0.135,0.458-0.49,0.4-0.82l0,0
			C94.55,126.914,93.758,126.431,92.63,126.431z"/>
	</g>
	<g id="XMLID_206_">
		<path fill="#FFFFFF" d="M107.254,127.083c0.26,1.504-1.296,3.027-3.474,3.404c-2.178,0.375-4.154-0.537-4.414-2.043
			c-0.259-1.5,1.295-3.025,3.475-3.402C105.018,124.666,106.993,125.58,107.254,127.083z"/>
	</g>
	<g id="XMLID_202_">
		<path id="XMLID_905_" fill="#0686D8" d="M102.792,132.046c-2.49,0-4.529-1.334-4.879-3.348c-0.402-2.344,1.652-4.588,4.677-5.109
			s5.711,0.902,6.116,3.242l0,0c0.207,1.201-0.245,2.451-1.243,3.43c-0.868,0.848-2.087,1.445-3.433,1.678
			C103.608,132.011,103.194,132.046,102.792,132.046z M103.809,126.431c-0.227,0-0.466,0.02-0.718,0.064
			c-1.497,0.258-2.359,1.193-2.272,1.699c0.087,0.504,1.208,1.1,2.711,0.838c0.751-0.129,1.432-0.449,1.87-0.879
			c0.141-0.137,0.459-0.492,0.401-0.82l0,0C105.729,126.914,104.937,126.431,103.809,126.431z"/>
	</g>
	<g id="XMLID_201_">
		<polygon id="XMLID_904_" fill="#0686D8" points="108.755,127.41 105.808,127.41 105.808,114.781 97.577,114.781 97.577,127.41 
			94.629,127.41 94.629,111.832 108.755,111.832 		"/>
	</g>
</g>
<g id="XMLID_190_">
	<g id="XMLID_193_">
		<path id="XMLID_903_" fill="#0686D8" d="M192.303,20.121h-8.399c-0.813,0-1.474-0.661-1.474-1.475s0.66-1.474,1.474-1.474h8.399
			c0.813,0,1.475,0.66,1.475,1.474S193.116,20.121,192.303,20.121z"/>
	</g>
	<g id="XMLID_192_">
		<path id="XMLID_902_" fill="#0686D8" d="M188.103,24.32c-0.813,0-1.474-0.66-1.474-1.475v-8.398c0-0.813,0.66-1.474,1.474-1.474
			s1.475,0.66,1.475,1.474v8.398C189.577,23.66,188.916,24.32,188.103,24.32z"/>
	</g>
</g>
<g id="XMLID_188_">
	<g id="XMLID_289_">
		<path id="XMLID_901_" fill="#0686D8" d="M69.029,42.284H60.63c-0.813,0-1.474-0.66-1.474-1.475c0-0.813,0.66-1.474,1.474-1.474
			h8.399c0.813,0,1.474,0.66,1.474,1.474C70.503,41.624,69.843,42.284,69.029,42.284z"/>
	</g>
	<g id="XMLID_189_">
		<path id="XMLID_900_" fill="#0686D8" d="M64.83,46.485c-0.813,0-1.474-0.66-1.474-1.475v-8.4c0-0.813,0.66-1.474,1.474-1.474
			s1.474,0.66,1.474,1.474v8.4C66.304,45.825,65.644,46.485,64.83,46.485z"/>
	</g>
</g>
<g id="XMLID_225_">
	<g id="XMLID_187_">
		<path id="XMLID_899_" fill="#0686D8" d="M389.163,130.529h-8.402c-0.813,0-1.474-0.66-1.474-1.473c0-0.814,0.66-1.475,1.474-1.475
			h8.402c0.813,0,1.474,0.66,1.474,1.475C390.637,129.869,389.977,130.529,389.163,130.529z"/>
	</g>
	<g id="XMLID_186_">
		<path id="XMLID_898_" fill="#0686D8" d="M384.962,134.728c-0.813,0-1.474-0.66-1.474-1.473v-8.4c0-0.814,0.66-1.475,1.474-1.475
			s1.474,0.66,1.474,1.475v8.4C386.436,134.068,385.775,134.728,384.962,134.728z"/>
	</g>
</g>
<g id="XMLID_183_">
	<g id="XMLID_185_">
		<path id="XMLID_897_" fill="#0686D8" d="M349.94,75.26c-0.379,0-0.755-0.146-1.043-0.434c-0.575-0.576-0.575-1.509,0-2.084
			l5.94-5.938c0.576-0.576,1.509-0.576,2.084,0c0.576,0.576,0.576,1.509,0,2.084l-5.939,5.938
			C350.694,75.114,350.318,75.26,349.94,75.26z"/>
	</g>
	<g id="XMLID_184_">
		<path id="XMLID_896_" fill="#0686D8" d="M355.88,75.26c-0.376,0-0.754-0.146-1.042-0.434l-5.94-5.938
			c-0.575-0.575-0.575-1.508,0-2.084c0.576-0.576,1.509-0.576,2.085,0l5.939,5.938c0.576,0.575,0.576,1.508,0,2.084
			C356.634,75.114,356.256,75.26,355.88,75.26z"/>
	</g>
</g>
<g id="XMLID_181_">
	<g id="XMLID_194_">
		<path id="XMLID_895_" fill="#0686D8" d="M58.89,122.812c-0.377,0-0.754-0.145-1.041-0.432c-0.576-0.576-0.576-1.508,0-2.084
			l5.939-5.939c0.576-0.576,1.508-0.576,2.084,0c0.576,0.574,0.576,1.508,0,2.084l-5.939,5.939
			C59.645,122.667,59.268,122.812,58.89,122.812z"/>
	</g>
	<g id="XMLID_182_">
		<path id="XMLID_894_" fill="#0686D8" d="M64.83,122.812c-0.377,0-0.754-0.145-1.042-0.432l-5.939-5.939
			c-0.576-0.576-0.576-1.51,0-2.084c0.575-0.576,1.508-0.576,2.084,0l5.939,5.939c0.576,0.576,0.576,1.508,0,2.084
			C65.585,122.667,65.208,122.812,64.83,122.812z"/>
	</g>
</g>
<g id="XMLID_180_">
	<rect id="XMLID_893_" x="168.083" fill="#0686D8" width="90.85" height="2.947"/>
</g>
<g id="XMLID_179_">
	<rect id="XMLID_892_" x="133.991" y="17.338" fill="#0686D8" width="34.188" height="2.948"/>
</g>
<g id="XMLID_178_">
	<rect id="XMLID_891_" x="309.665" y="69.341" fill="#0686D8" width="34.189" height="2.948"/>
</g>
<g id="XMLID_177_">
	<rect id="XMLID_890_" x="171.127" y="17.338" fill="#0686D8" width="7.017" height="2.948"/>
</g>
<g id="XMLID_175_">
	<path id="XMLID_176_" fill="#0686D8" d="M359.811,146.302c0,1.385-1.125,2.506-2.511,2.506s-2.506-1.121-2.506-2.506
		c0-1.387,1.12-2.512,2.506-2.512S359.811,144.916,359.811,146.302z"/>
</g>
<g id="XMLID_295_">
	<circle id="XMLID_174_" fill="#0686D8" cx="270.211" cy="18.646" r="2.508"/>
</g>
<g id="XMLID_205_">
	<circle id="XMLID_173_" fill="#0686D8" cx="33.205" cy="91.973" r="2.508"/>
</g>
<g id="XMLID_171_">
	<circle id="XMLID_172_" fill="#0686D8" cx="305.965" cy="52.31" r="1.574"/>
</g>
<g id="XMLID_198_">
	<circle id="XMLID_170_" fill="#0686D8" cx="107.282" cy="12.614" r="1.574"/>
</g>
<g id="XMLID_147_">
	<g id="XMLID_169_">
		<path fill="#D2E9F7" d="M280.973,198.525V47.593c0-4.018-3.229-7.274-7.212-7.274H167.166c-3.983,0-7.213,3.257-7.213,7.274
			v150.934L280.973,198.525z"/>
	</g>
	<g id="XMLID_167_">
		<path fill="#D2E9F7" d="M159.953,64.32V46.383c0-3.347,2.715-6.064,6.065-6.064h108.89c3.347,0,6.064,2.718,6.064,6.064V64.32
			H159.953z"/>
	</g>
	<g id="XMLID_166_">
		<path id="XMLID_889_" fill="#0686D8" d="M161.428,112.052h-2.948V46.383c0-4.156,3.382-7.538,7.539-7.538h16.069v2.947h-16.069
			c-2.532,0-4.591,2.062-4.591,4.591V112.052z"/>
	</g>
	<g id="XMLID_277_">
		<path id="XMLID_888_" fill="#0686D8" d="M282.447,73.73h-2.948V46.383c0-2.529-2.062-4.591-4.591-4.591h-71.796v-2.947h71.796
			c4.157,0,7.539,3.382,7.539,7.538V73.73z"/>
	</g>
	<g id="XMLID_164_">
		<rect id="XMLID_887_" x="187.957" y="38.845" fill="#0686D8" width="8.312" height="2.947"/>
	</g>
	<g id="XMLID_284_">
		<rect id="XMLID_886_" x="159.953" y="63.175" fill="#0686D8" width="121.02" height="2.947"/>
	</g>
	<g id="XMLID_283_">
		<rect id="XMLID_885_" x="168.547" y="47.454" fill="#0686D8" width="3.073" height="2.948"/>
	</g>
	<g id="XMLID_163_">
		<rect id="XMLID_884_" x="176.22" y="47.454" fill="#0686D8" width="3.075" height="2.948"/>
	</g>
	<g id="XMLID_281_">
		<rect id="XMLID_883_" x="183.894" y="47.454" fill="#0686D8" width="3.074" height="2.948"/>
	</g>
	<g id="XMLID_162_">
		<rect id="XMLID_1038_" x="163.593" y="73.304" fill="#FFFFFF" width="113.388" height="125.221"/>
	</g>
	<g id="XMLID_161_">
		<rect id="XMLID_1037_" x="198.455" y="53.611" fill="#FFFFFF" width="64.311" height="4.398"/>
	</g>
	<g id="XMLID_157_">
		<rect x="180.357" y="53.611" fill="#FFFFFF" width="14.562" height="4.398"/>
	</g>
	<g id="XMLID_156_">
		<rect x="168.547" y="53.611" fill="#FFFFFF" width="9.21" height="4.398"/>
	</g>
	<g id="XMLID_155_">
		<rect x="171.021" y="80.461" fill="#9ECFEF" width="34.204" height="46.037"/>
	</g>
	<g id="XMLID_154_">
		<rect x="213.509" y="80.461" fill="#D2E9F7" width="56.701" height="68.033"/>
	</g>
	<g id="XMLID_151_">
		<rect x="213.509" y="159.664" fill="#9ECFEF" width="56.701" height="11.17"/>
	</g>
	<g id="XMLID_150_">
		<path fill="#9ECFEF" d="M185.275,140.371h-11.962c-0.935,0-1.693-0.758-1.693-1.691l0,0c0-0.938,0.759-1.693,1.693-1.693h11.962
			c0.935,0,1.692,0.756,1.692,1.693l0,0C186.968,139.613,186.21,140.371,185.275,140.371z"/>
	</g>
	<g id="XMLID_148_">
		<path fill="#5FB0E5" d="M202.251,140.371h-11.962c-0.935,0-1.693-0.758-1.693-1.691l0,0c0-0.938,0.759-1.693,1.693-1.693h11.962
			c0.935,0,1.692,0.756,1.692,1.693l0,0C203.943,139.613,203.186,140.371,202.251,140.371z"/>
	</g>
</g>
<g id="XMLID_304_" opacity="0.3">
	<path id="XMLID_864_" fill="#0686D8" d="M276.98,198.525L276.98,198.525h3.992V76.423h-22.309c-4.405,0-8.066,3.235-8.732,7.458
		c-5.117,0.67-9.078,5.056-9.078,10.351v14.389c0,1.607,0.521,3.088,1.392,4.307c-0.858,0.863-1.392,2.049-1.392,3.357v3.188
		c0,2.629,2.138,4.762,4.764,4.762c0.457,0,0.887-0.084,1.303-0.203c1.203,10.213,8.239,18.645,17.68,21.896v0.352
		c-4.015,0.918-7.846,2.408-11.333,4.477l0.759,1.281c-1.871,1.109-3.61,2.371-5.195,3.762l-0.983-1.117
		c-2.794,2.451-5.093,5.25-6.836,8.32l1.316,0.746c-1.07,1.893-1.919,3.885-2.514,5.969l-1.455-0.416
		c-0.702,2.455-1.056,4.992-1.056,7.537v21.688H276.98z"/>
</g>
<g id="XMLID_105_">
	<g id="XMLID_145_">
		<path id="XMLID_146_" fill="#FFFFFF" d="M308.571,119.472c0,1.814-1.478,3.289-3.294,3.289l0,0c-1.815,0-3.289-1.475-3.289-3.289
			v-3.188c0-1.814,1.474-3.289,3.289-3.289l0,0c1.816,0,3.294,1.475,3.294,3.289V119.472z"/>
	</g>
	<g id="XMLID_144_">
		<path id="XMLID_879_" fill="#0686D8" d="M305.277,124.234c-2.625,0-4.763-2.133-4.763-4.762v-3.188
			c0-2.625,2.138-4.764,4.763-4.764c2.63,0,4.768,2.139,4.768,4.764v3.188C310.045,122.101,307.907,124.234,305.277,124.234z
			 M305.277,114.47c-0.999,0-1.815,0.812-1.815,1.814v3.188c0,1,0.816,1.814,1.815,1.814c1.002,0,1.82-0.814,1.82-1.814v-3.188
			C307.098,115.283,306.279,114.47,305.277,114.47z"/>
	</g>
	<g id="XMLID_517_">
		<path id="XMLID_143_" fill="#FFFFFF" d="M252.841,119.472c0,1.814-1.478,3.289-3.293,3.289l0,0c-1.814,0-3.29-1.475-3.29-3.289
			v-3.188c0-1.814,1.476-3.289,3.29-3.289l0,0c1.815,0,3.293,1.475,3.293,3.289V119.472z"/>
	</g>
	<g id="XMLID_142_">
		<path id="XMLID_876_" fill="#0686D8" d="M249.548,124.234c-2.626,0-4.764-2.133-4.764-4.762v-3.188
			c0-2.625,2.138-4.764,4.764-4.764c2.629,0,4.767,2.139,4.767,4.764v3.188C254.314,122.101,252.177,124.234,249.548,124.234z
			 M249.548,114.47c-1,0-1.815,0.812-1.815,1.814v3.188c0,1,0.815,1.814,1.815,1.814c1.003,0,1.819-0.814,1.819-1.814v-3.188
			C251.367,115.283,250.551,114.47,249.548,114.47z"/>
	</g>
	<g id="XMLID_140_">
		<path id="XMLID_141_" fill="#5FB0E5" d="M312.981,198.527v-21.689c0-16.58-15.812-30.148-35.137-30.148l0,0
			c-19.327,0-35.138,13.568-35.138,30.148v21.689H312.981z"/>
	</g>
	<g id="XMLID_139_">
		<path id="XMLID_875_" fill="#0686D8" d="M244.182,198.527h-2.948v-21.689c0-2.545,0.354-5.082,1.056-7.537l2.835,0.809
			c-0.626,2.195-0.942,4.457-0.942,6.729V198.527z"/>
	</g>
	<g id="XMLID_511_">
		<path id="XMLID_874_" fill="#0686D8" d="M247.506,164.455l-2.564-1.453c1.742-3.07,4.042-5.869,6.836-8.32l1.944,2.215
			C251.175,159.13,249.085,161.673,247.506,164.455z"/>
	</g>
	<g id="XMLID_138_">
		<path id="XMLID_873_" fill="#0686D8" d="M299.678,155.064c-6.1-4.449-13.854-6.9-21.833-6.9c-6.867,0-13.488,1.773-19.143,5.127
			l-1.505-2.535c6.111-3.625,13.251-5.539,20.647-5.539c8.598,0,16.97,2.652,23.569,7.465L299.678,155.064z"/>
	</g>
	<g id="XMLID_137_">
		<rect id="XMLID_872_" x="261.12" y="174.744" fill="#0686D8" width="2.948" height="23.783"/>
	</g>
	<g id="XMLID_136_">
		<rect id="XMLID_871_" x="291.888" y="174.744" fill="#0686D8" width="2.947" height="23.783"/>
	</g>
	<g id="XMLID_135_">
		<path fill="#FFFFFF" d="M276.578,158.88L276.578,158.88c-3.632,0-6.573-2.943-6.573-6.574V137.49c0-3.113,2.523-5.641,5.641-5.641
			h1.865c3.112,0,5.639,2.527,5.639,5.641v14.816C283.149,155.937,280.207,158.88,276.578,158.88z"/>
	</g>
	<g id="XMLID_133_">
		<path id="XMLID_868_" fill="#0686D8" d="M276.578,160.355c-4.438,0-8.048-3.611-8.048-8.049V137.49
			c0-3.92,3.192-7.111,7.115-7.111h1.865c3.923,0,7.112,3.191,7.112,7.111v14.816C284.623,156.744,281.015,160.355,276.578,160.355z
			 M275.646,133.326c-2.3,0-4.167,1.867-4.167,4.164v14.816c0,2.812,2.286,5.1,5.1,5.1c2.81,0,5.097-2.287,5.097-5.1V137.49
			c0-2.297-1.867-4.164-4.164-4.164H275.646z"/>
	</g>
	<g id="XMLID_116_">
		<path id="XMLID_118_" fill="#FFFFFF" d="M277.119,145.912L277.119,145.912c-13.745,0-24.994-11.246-24.994-24.994v-16.941
			c0-13.747,11.249-13.435,24.994-13.435l0,0c13.745,0,24.994-0.312,24.994,13.435v16.941
			C302.113,134.666,290.864,145.912,277.119,145.912z"/>
	</g>
	<g id="XMLID_115_">
		<path id="XMLID_865_" fill="#0686D8" d="M277.119,147.386c-14.594,0-26.468-11.875-26.468-26.469v-16.939
			c0-6.77,2.615-11.069,7.993-13.14c4.614-1.777,10.897-1.77,17.584-1.771h1.781c6.702-0.004,12.97-0.008,17.584,1.771
			c5.377,2.071,7.993,6.37,7.993,13.14v16.939C303.587,135.511,291.713,147.386,277.119,147.386z M275.376,92.015
			c-6.07,0-11.753,0.065-15.672,1.573c-4.223,1.628-6.105,4.831-6.105,10.39v16.939c0,12.971,10.55,23.521,23.521,23.521
			c12.97,0,23.52-10.551,23.52-23.521v-16.939c0-5.559-1.883-8.762-6.104-10.39c-4.104-1.577-10.118-1.579-16.521-1.573h-1.789
			C275.94,92.015,275.658,92.015,275.376,92.015z"/>
	</g>
	<g id="XMLID_112_">
		<path id="XMLID_114_" fill="#D2E9F7" d="M252.244,114.605L252.244,114.605c-3.305,0-5.986-2.678-5.986-5.984V94.231
			c0-4.954,4.016-8.967,8.969-8.967l0,0l0,0c0-4.068,3.299-7.368,7.368-7.368h36.35c4.921,0,8.909,3.988,8.909,8.909v21.598
			c0,3.201-2.696,5.738-5.891,5.541l0,0V99.68c0,0-4.104,6.707-17.029,6.691c-15.618-0.02-25.771-7.731-25.771-7.731
			s-0.96,2.124-3.052,3.973c-1.921,1.699-3.867,1.1-3.867,1.1V114.605z"/>
	</g>
	<g id="XMLID_111_" opacity="0.46">
		<path id="XMLID_861_" fill="#9ECFEF" d="M252.244,114.605v-10.893c0,0,1.946,0.6,3.867-1.1c2.092-1.85,3.052-3.973,3.052-3.973
			s20.531,10.768,32.745,6.793c-13.282-5.712-30.496-9.181-33.355-26.328c-2.002,1.319-3.326,3.582-3.326,6.159
			c-4.953,0-8.969,4.013-8.969,8.967v14.389C246.258,111.927,248.939,114.605,252.244,114.605z"/>
	</g>
	<g id="XMLID_109_">
		<path id="XMLID_863_" fill="#0686D8" d="M253.72,116.08h-1.474c-4.115,0-7.462-3.346-7.462-7.459V94.231
			c0-5.295,3.961-9.681,9.078-10.351c0.666-4.223,4.327-7.458,8.732-7.458h36.35c5.727,0,10.383,4.658,10.383,10.383v21.598
			c0,1.932-0.806,3.797-2.211,5.117c-1.404,1.324-3.312,2.018-5.243,1.896l-1.384-0.084V99.68h2.948v12.644
			c0.612-0.176,1.178-0.496,1.66-0.947c0.827-0.779,1.282-1.836,1.282-2.973V86.806c0-4.1-3.336-7.435-7.436-7.435h-36.35
			c-3.252,0-5.895,2.645-5.895,5.894v1.474h-1.474c-4.132,0-7.494,3.361-7.494,7.493v14.389c0,1.973,1.271,3.652,3.038,4.264
			l0.001-11.17l1.908,0.592c0.023,0.002,1.217,0.299,2.457-0.795c1.804-1.599,2.675-3.458,2.683-3.478l2.687,1.213
			c-0.044,0.1-1.114,2.433-3.416,4.472c-1.134,1.002-2.347,1.42-3.37,1.537V116.08z"/>
	</g>
	<g id="XMLID_106_">
		<path id="XMLID_862_" fill="#0686D8" d="M284.971,107.845c-0.014,0-0.025,0-0.038,0c-15.92-0.02-29.575-9.985-30.149-10.409
			l1.754-2.37c0.131,0.098,13.468,9.812,28.398,9.83c0.01,0,0.021,0,0.033,0c11.968,0,17.473-8.129,17.526-8.213l2.46,1.623
			C304.698,98.697,298.505,107.845,284.971,107.845z"/>
	</g>
</g>
<g id="XMLID_303_" opacity="0.3">
	<path id="XMLID_756_" fill="#0686D8" d="M178.685,193.933V121.41c0-3.348-2.722-6.068-6.068-6.068h-12.663v83.186h16.583
		C177.84,197.412,178.685,195.779,178.685,193.933z"/>
</g>
<g id="XMLID_102_">
	<g id="XMLID_103_">
		<g id="XMLID_121_">
			<path fill="#FFFFFF" d="M169.374,198.527h-43.532c-2.158,0-3.906-1.75-3.906-3.906v-73.898c0-2.156,1.748-3.908,3.906-3.908
				h43.532c2.157,0,3.905,1.752,3.905,3.908v73.898C173.279,196.777,171.531,198.527,169.374,198.527z"/>
		</g>
		<g id="XMLID_104_">
			<path id="XMLID_860_" fill="#0686D8" d="M168.686,200.001h-42.157c-3.345,0-6.066-2.721-6.066-6.068V121.41
				c0-3.348,2.722-6.068,6.066-6.068h2.815v2.947h-2.815c-1.72,0-3.119,1.4-3.119,3.121v72.523c0,1.719,1.399,3.121,3.119,3.121
				h42.157c1.721,0,3.12-1.402,3.12-3.121V121.41c0-1.721-1.399-3.121-3.12-3.121h-29.031v-2.947h29.031
				c3.347,0,6.068,2.721,6.068,6.068v72.523C174.754,197.281,172.032,200.001,168.686,200.001z"/>
		</g>
		<g id="XMLID_119_">
			<rect id="XMLID_859_" x="132.02" y="115.341" fill="#0686D8" width="5.701" height="2.947"/>
		</g>
		<g id="XMLID_117_">
			<rect id="XMLID_858_" x="140.009" y="121.498" fill="#0686D8" width="15.197" height="2.947"/>
		</g>
		<g id="XMLID_110_">
			<path id="XMLID_855_" fill="#0686D8" d="M147.607,195.783c-2.172,0-3.938-1.768-3.938-3.938c0-2.174,1.767-3.939,3.938-3.939
				s3.939,1.766,3.939,3.939C151.547,194.015,149.779,195.783,147.607,195.783z M147.607,190.855c-0.546,0-0.99,0.443-0.99,0.99
				c0,0.545,0.444,0.99,0.99,0.99c0.547,0,0.991-0.445,0.991-0.99C148.599,191.298,148.154,190.855,147.607,190.855z"/>
		</g>
		<g id="XMLID_108_">
			<rect id="XMLID_1036_" x="127.07" y="128.607" fill="#5FB0E5" width="41.074" height="57.881"/>
		</g>
	</g>
</g>
<g id="XMLID_101_">
	<path fill="#9ECFEF" d="M149.697,101.769l-2.954-15.986c1.688-3.775,2.648-7.948,2.648-12.353
		c0-16.741-13.571-30.313-30.312-30.313c-16.742,0-30.314,13.572-30.314,30.313s13.572,30.315,30.314,30.315
		c5.911,0,11.409-1.721,16.073-4.647L149.697,101.769z"/>
</g>
<g id="XMLID_95_">
	<ellipse fill="#FFFFFF" cx="119.231" cy="73.431" rx="23.402" ry="22.86"/>
</g>
<g id="XMLID_86_">
	<g id="XMLID_93_">
		<path fill="#F1F2F2" d="M122.52,65.545h0.648c0.51-1.489,1.131-3.568,1.13-4.821c0-0.576,0.074-1.493,0.014-2.342
			c-0.007,0.208-0.014,0.399-0.014,0.561C124.3,61.063,122.52,65.545,122.52,65.545z"/>
	</g>
	<g id="XMLID_747_">
		<path id="XMLID_851_" fill="#0686D8" d="M136.563,77.429h-3.687V74.48h3.687c0.37,0,0.684-0.314,0.684-0.684
			c0-0.372-0.313-0.683-0.684-0.683h-3.687v-2.948h3.687c2.002,0,3.632,1.628,3.632,3.631
			C140.195,75.799,138.565,77.429,136.563,77.429z"/>
	</g>
	<g id="XMLID_746_">
		<path id="XMLID_91_" fill="#0686D8" d="M134.299,81.743h-5.206v-2.948h5.206c0.37,0,0.684-0.312,0.684-0.684
			c0-0.37-0.313-0.683-0.684-0.683h-5.206V74.48h5.206c2.002,0,3.632,1.628,3.632,3.631
			C137.931,80.115,136.301,81.743,134.299,81.743z"/>
	</g>
	<g id="XMLID_745_">
		<path id="XMLID_90_" fill="#0686D8" d="M132.034,86.058h-12.27c-0.946,0-1.869-0.388-2.529-1.063l-2.147-2.195
			c-0.049-0.05-0.119-0.079-0.19-0.079h-0.517v-2.948h0.517c0.858,0,1.696,0.352,2.297,0.966l2.149,2.195
			c0.111,0.115,0.261,0.177,0.421,0.177h12.27c0.371,0,0.684-0.311,0.684-0.684c0-0.368-0.312-0.683-0.684-0.683h-2.033v-2.948
			h2.033c2.003,0,3.632,1.63,3.632,3.631C135.666,84.43,134.037,86.058,132.034,86.058z"/>
	</g>
	<g id="XMLID_87_">
		<path id="XMLID_88_" fill="#0686D8" d="M135.711,73.114h-6.618v-2.948h6.618c0.37,0,0.684-0.314,0.684-0.685
			c0-0.371-0.313-0.684-0.684-0.684H120.13l0.8-2.018c0.649-1.633,1.677-4.721,1.676-6.057c0-0.203,0.009-0.443,0.019-0.706
			c0.014-0.39,0.045-1.236-0.023-1.823c-0.547,1.604-1.709,4.819-2.639,6.092c-0.621,0.848-3.005,3.938-3.005,3.938l-0.442,0.574
			h-2.996V65.85h1.547c0.711-0.923,2.072-2.696,2.517-3.303c0.687-0.94,1.904-4.272,2.51-6.149l0.168-0.353
			c0.409-0.626,1.188-0.944,2.317-0.944c0.009,0,0.019,0,0.028,0c1.146,0.006,1.935,0.33,2.341,0.967
			c0.729,1.141,0.669,2.825,0.623,4.058c-0.008,0.223-0.016,0.426-0.016,0.599c0.001,1.411-0.617,3.549-1.149,5.126h11.307
			c2.003,0,3.631,1.63,3.631,3.632C139.342,71.482,137.714,73.114,135.711,73.114z"/>
	</g>
	<g id="XMLID_113_">
		<path id="XMLID_847_" fill="#0686D8" d="M112.138,84.813h-10.21v-2.947h10.21c0.176,0,0.318-0.143,0.318-0.319V66.773
			c0-0.177-0.143-0.319-0.318-0.319h-2.634v-2.947h2.634c1.801,0,3.266,1.466,3.266,3.267v14.773
			C115.403,83.348,113.938,84.813,112.138,84.813z"/>
	</g>
</g>
<g id="XMLID_84_">
	<rect id="XMLID_846_" x="60.527" y="81.866" fill="#0686D8" width="39.442" height="2.947"/>
</g>
<g id="XMLID_81_">
	<rect id="XMLID_82_" x="81.796" y="75.745" fill="#0686D8" width="23.22" height="2.948"/>
</g>
<g id="XMLID_79_">
	<rect id="XMLID_80_" x="74.297" y="75.745" fill="#0686D8" width="5.534" height="2.948"/>
</g>
<g id="XMLID_76_">
	<rect id="XMLID_78_" x="54.448" y="69.625" fill="#0686D8" width="51.219" height="2.948"/>
</g>
<g id="XMLID_75_">
	<rect id="XMLID_842_" x="54.64" y="63.507" fill="#0686D8" width="54.018" height="2.947"/>
</g>
<g id="XMLID_73_">
	<g id="XMLID_814_">
		<path fill="#FFFFFF" d="M355.926,198.527h-57.717c-0.76,0-1.376-0.617-1.376-1.377v-38.1c0-0.76,0.616-1.375,1.376-1.375h57.717
			c0.76,0,1.374,0.615,1.374,1.375v38.1C357.3,197.91,356.686,198.527,355.926,198.527z"/>
	</g>
	<g id="XMLID_196_">
		<path id="XMLID_839_" fill="#0686D8" d="M355.926,200.001h-57.717c-1.571,0-2.85-1.277-2.85-2.852v-38.1
			c0-1.57,1.278-2.85,2.85-2.85h57.717c1.57,0,2.849,1.279,2.849,2.85v38.1C358.774,198.724,357.496,200.001,355.926,200.001z
			 M355.826,159.05l-57.617,0.098l0.099,38.002l57.519-0.096V159.05z"/>
	</g>
	<g id="XMLID_812_">
		<path fill="#0686D8" d="M332.354,174.611l-9.617,5.549c-0.606,0.352-1.365-0.086-1.365-0.785v-11.105
			c0-0.699,0.759-1.137,1.365-0.787l9.617,5.553C332.961,173.386,332.961,174.259,332.354,174.611z"/>
	</g>
	<g id="XMLID_810_">
		<rect id="XMLID_838_" x="303.579" y="189.58" fill="#0686D8" width="46.361" height="2.949"/>
	</g>
	<g id="XMLID_809_">
		<rect id="XMLID_837_" x="312.471" y="187.369" fill="#0686D8" width="2.948" height="7.375"/>
	</g>
</g>
<g id="XMLID_481_">
	<g id="XMLID_72_">
		<rect id="XMLID_836_" x="30.513" y="197.054" fill="#0686D8" width="5.383" height="2.947"/>
	</g>
	<g id="XMLID_71_">
		<rect id="XMLID_835_" x="364.505" y="197.054" fill="#0686D8" width="11.89" height="2.947"/>
	</g>
	<g id="XMLID_67_">
		<rect id="XMLID_834_" x="39.479" y="197.054" fill="#0686D8" width="321.955" height="2.947"/>
	</g>
</g>
</svg>
