<?xml version="1.0" encoding="utf-8"?>
<!-- Generator: Adobe Illustrator 15.0.0, SVG Export Plug-In . SVG Version: 6.00 Build 0)  -->
<!DOCTYPE svg PUBLIC "-//W3C//DTD SVG 1.1//EN" "http://www.w3.org/Graphics/SVG/1.1/DTD/svg11.dtd">
<svg version="1.1" id="Layer_1" xmlns="http://www.w3.org/2000/svg" xmlns:xlink="http://www.w3.org/1999/xlink" x="0px" y="0px"
	 width="374px" height="199.999px" viewBox="31.095 0 374 199.999" enable-background="new 31.095 0 374 199.999"
	 xml:space="preserve">
<g id="XMLID_134_">
	<g id="XMLID_704_" opacity="0.1">
		<path id="XMLID_222_" d="M399.534,44.236L399.534,44.236c0,11.058-8.965,20.021-20.021,20.021h-70.477
			c-6.947,0-12.58,5.633-12.58,12.582l0,0c0,6.949,5.633,12.581,12.58,12.581h16.547c8.619,0,15.604,6.985,15.604,15.603l0,0
			c0,8.617-6.984,15.603-15.604,15.603h-40.127c-8.373,0-15.162,6.787-15.162,15.162l0,0c0,8.373,6.789,15.162,15.162,15.162
			h102.789c9.305,0,16.844,7.541,16.844,16.846l0,0c0,9.367-7.643,16.938-17.012,16.842l-78.35-0.785
			c-8.559-0.086-15.367,7.156-14.75,15.693l0,0l-155.636-0.912l0,0c0-19.875-16.113-35.988-35.988-35.988H49.086
			c-9.936,0-17.991-8.055-17.991-17.991l0,0c0-9.979,8.124-18.054,18.104-17.99l53.542,0.335v-4.787
			c0-11.4,9.241-20.643,20.642-20.643l0,0c10.304,0,18.656-8.352,18.656-18.656l0,0c0-10.303-8.352-18.656-18.656-18.656H56.415
			c-11.056,0-20.021-8.963-20.021-20.02v-0.001c0-11.056,8.964-20.02,20.021-20.02h323.098
			C390.569,24.217,399.534,33.18,399.534,44.236z"/>
	</g>
	<g id="XMLID_457_">
		<g id="XMLID_455_">
			<path fill="#5FB0E5" d="M195.968,193.848h-91.903c-1.013,0-1.839-0.826-1.839-1.838v-65.024c0-1.013,0.826-1.839,1.839-1.839
				h91.903c1.012,0,1.839,0.826,1.839,1.839v65.024C197.807,193.022,196.979,193.848,195.968,193.848z"/>
		</g>
		<g id="XMLID_454_">
			<path id="XMLID_580_" fill="#0686D8" d="M196.096,195.229h-92.161c-1.702,0-3.089-1.387-3.089-3.09v-65.281
				c0-1.703,1.387-3.09,3.089-3.09h53.888v2.758h-53.888c-0.18,0-0.331,0.152-0.331,0.332v65.281c0,0.18,0.151,0.33,0.331,0.33
				h92.161c0.18,0,0.332-0.15,0.332-0.33h2.759C199.187,193.842,197.8,195.229,196.096,195.229z"/>
		</g>
		<g id="XMLID_453_">
			<path id="XMLID_579_" fill="#0686D8" d="M195.432,195.229H104.6c-2.069,0-3.753-1.686-3.753-3.756h2.758
				c0,0.541,0.456,0.996,0.995,0.996h90.832c0.54,0,0.996-0.455,0.996-0.996V180.12h2.759v11.354
				C199.187,193.543,197.502,195.229,195.432,195.229z"/>
		</g>
		<g id="XMLID_452_">
			<rect x="106.868" y="130.552" fill="#FFFFFF" width="85.779" height="55.751"/>
		</g>
		<g id="XMLID_451_">
			<path id="XMLID_268_" fill="#FFFFFF" d="M196.135,197.663h-93.293c-2.239,0-4.15-1.621-4.513-3.832l-0.664-4.053h43.241
				l1.654,2.375h11.948l1.787-2.375h45.553l-0.578,3.525C200.858,195.817,198.684,197.663,196.135,197.663z"/>
		</g>
		<g id="XMLID_456_">
			<path id="XMLID_578_" fill="#0686D8" d="M196.135,199.042h-93.293c-2.929,0-5.399-2.098-5.874-4.986l-0.927-5.656h45.584
				l1.654,2.373h10.372v2.76h-11.812l-1.654-2.375H99.288l0.402,2.451c0.255,1.551,1.58,2.676,3.151,2.676h93.293
				c1.883,0,3.47-1.348,3.773-3.203l0.578-3.527l2.723,0.447l-0.579,3.525C202.107,196.721,199.377,199.042,196.135,199.042z"/>
		</g>
		<g id="XMLID_372_" opacity="0.6">
			<g id="XMLID_449_">
				<rect x="119.38" y="136.752" fill="#0686D8" width="9.176" height="1.201"/>
			</g>
			<g id="XMLID_444_">
				<rect x="123.968" y="140.856" fill="#5FB0E5" width="6.319" height="1.201"/>
			</g>
			<g id="XMLID_443_">
				<rect x="144.266" y="140.856" fill="#0686D8" width="44.078" height="1.201"/>
			</g>
			<g id="XMLID_442_">
				<rect id="XMLID_1031_" x="134.639" y="140.856" fill="#0686D8" width="7.109" height="1.201"/>
			</g>
			<g id="XMLID_440_">
				<rect id="XMLID_1030_" x="126.12" y="144.28" fill="#9ECFEF" width="12.593" height="1.202"/>
			</g>
			<g id="XMLID_435_">
				<rect x="131.221" y="149.118" fill="#5FB0E5" width="15.98" height="1.201"/>
			</g>
			<g id="XMLID_434_">
				<rect id="XMLID_1029_" x="119.38" y="153.668" fill="#0686D8" width="17.465" height="1.201"/>
			</g>
			<g id="XMLID_433_">
				<rect id="XMLID_1028_" x="138.713" y="153.668" fill="#9ECFEF" width="12.617" height="1.201"/>
			</g>
			<g id="XMLID_432_">
				<rect id="XMLID_1027_" x="123.968" y="158.219" fill="#5FB0E5" width="23.418" height="1.201"/>
			</g>
			<g id="XMLID_431_">
				<rect id="XMLID_1026_" x="156.948" y="158.219" fill="#0686D8" width="15.571" height="1.201"/>
			</g>
			<g id="XMLID_430_">
				<rect id="XMLID_1025_" x="148.376" y="158.219" fill="#0686D8" width="7.348" height="1.201"/>
			</g>
			<g id="XMLID_426_">
				<rect id="XMLID_1024_" x="131.753" y="162.772" fill="#0686D8" width="20.491" height="1.201"/>
			</g>
			<g id="XMLID_425_">
				<rect x="126.12" y="162.772" fill="#5FB0E5" width="4.29" height="1.201"/>
			</g>
			<g id="XMLID_424_">
				<rect x="119.38" y="166.114" fill="#0686D8" width="13.978" height="1.201"/>
			</g>
			<g id="XMLID_423_">
				<rect x="134.443" y="166.114" fill="#5FB0E5" width="4.803" height="1.201"/>
			</g>
			<g id="XMLID_422_">
				<rect id="XMLID_1023_" x="140.584" y="166.114" fill="#9ECFEF" width="22.932" height="1.201"/>
			</g>
			<g id="XMLID_421_">
				<rect id="XMLID_1022_" x="165.297" y="166.114" fill="#0686D8" width="20.707" height="1.201"/>
			</g>
			<g id="XMLID_420_">
				<rect id="XMLID_1021_" x="123.968" y="170.665" fill="#0686D8" width="7.253" height="1.201"/>
			</g>
			<g id="XMLID_419_">
				<rect id="XMLID_1020_" x="133.358" y="170.665" fill="#0686D8" width="17.217" height="1.201"/>
			</g>
			<g id="XMLID_418_">
				<rect id="XMLID_1019_" x="127.87" y="175.215" fill="#0686D8" width="13.978" height="1.201"/>
			</g>
			<g id="XMLID_416_">
				<rect id="XMLID_1018_" x="144.786" y="175.215" fill="#5FB0E5" width="13.977" height="1.201"/>
			</g>
			<g id="XMLID_415_">
				<rect id="XMLID_1017_" x="160.934" y="175.215" fill="#0686D8" width="13.164" height="1.201"/>
			</g>
			<g id="XMLID_408_">
				<rect x="183.098" y="149.118" fill="#0686D8" width="3.951" height="1.201"/>
			</g>
			<g id="XMLID_407_">
				<rect x="148.613" y="149.118" fill="#0686D8" width="32.733" height="1.201"/>
			</g>
			<g id="XMLID_406_">
				<rect id="XMLID_1016_" x="131.221" y="136.752" fill="#0686D8" width="37.204" height="1.201"/>
			</g>
			<g id="XMLID_405_">
				<rect x="113.158" y="134.962" fill="#0686D8" width="1.934" height="1.933"/>
			</g>
			<g id="XMLID_404_">
				<rect id="XMLID_1015_" x="113.158" y="140.054" fill="#0686D8" width="1.934" height="1.933"/>
			</g>
			<g id="XMLID_403_">
				<rect x="113.158" y="145.145" fill="#0686D8" width="1.934" height="1.934"/>
			</g>
			<g id="XMLID_402_">
				<rect x="113.158" y="150.237" fill="#0686D8" width="1.934" height="1.934"/>
			</g>
			<g id="XMLID_401_">
				<rect x="113.158" y="155.329" fill="#0686D8" width="1.934" height="1.934"/>
			</g>
			<g id="XMLID_393_">
				<rect x="113.158" y="160.42" fill="#0686D8" width="1.934" height="1.932"/>
			</g>
			<g id="XMLID_391_">
				<rect id="XMLID_1014_" x="113.158" y="165.512" fill="#0686D8" width="1.934" height="1.932"/>
			</g>
			<g id="XMLID_390_">
				<rect x="113.158" y="170.602" fill="#0686D8" width="1.934" height="1.934"/>
			</g>
			<g id="XMLID_389_">
				<rect id="XMLID_1013_" x="113.158" y="175.694" fill="#0686D8" width="1.934" height="1.934"/>
			</g>
			<g id="XMLID_388_">
				<rect id="XMLID_1012_" x="113.158" y="180.786" fill="#0686D8" width="1.934" height="1.934"/>
			</g>
		</g>
	</g>
	<g id="XMLID_529_">
		<g id="XMLID_495_">
			<path fill="#FFFFFF" d="M363.663,198.571l-0.242-42.934c0-3.247-2.957-5.878-6.605-5.878h-61.477l0.24,48.86L363.663,198.571z"/>
		</g>
		<g id="XMLID_532_">
			<path id="XMLID_576_" fill="#0686D8" d="M362.282,196.586l-0.24-40.213c0-2.891-2.346-5.235-5.227-5.235H305.45v-2.759h51.365
				c4.402,0,7.984,3.583,7.984,7.986l0.242,40.203L362.282,196.586z"/>
		</g>
		<g id="XMLID_527_">
			<path fill="#5FB0E5" d="M356.804,198.62h6.859v-50.669c0-2.62-2.357-4.746-5.264-4.746h-1.596V198.62z"/>
		</g>
		<g id="XMLID_526_">
			<path id="XMLID_566_" fill="#0686D8" d="M365.042,198.62h-2.76v-50.15c0-2.143-1.74-3.885-3.883-3.885h-0.217v54.035h-2.758
				v-56.794h2.975c3.662,0,6.643,2.979,6.643,6.644V198.62z"/>
		</g>
		<g id="XMLID_528_">
			<circle fill="#D2E9F7" cx="331.288" cy="172.178" r="12.181"/>
		</g>
		<g id="XMLID_494_">
			<path id="XMLID_555_" fill="#0686D8" d="M323.407,191.401c-1.408-0.217-2.766-0.648-4.037-1.287l1.24-2.465
				c1.012,0.508,2.094,0.854,3.213,1.025L323.407,191.401z M327.638,191.383l-0.438-2.723c1.121-0.182,2.199-0.535,3.205-1.051
				l1.26,2.453C330.403,190.711,329.048,191.157,327.638,191.383z M315.956,187.661l-0.131-0.135
				c-0.936-0.932-1.764-2.061-2.404-3.299l2.449-1.268c0.51,0.984,1.17,1.885,1.961,2.676L315.956,187.661z M335.083,187.561
				l-1.953-1.947c0.805-0.807,1.469-1.727,1.979-2.73l2.461,1.246C336.929,185.393,336.093,186.547,335.083,187.561z
				 M312.091,180.204c-0.119-0.729-0.18-1.469-0.18-2.207c0-0.682,0.051-1.363,0.152-2.029l2.727,0.414
				c-0.08,0.529-0.121,1.072-0.121,1.615c0,0.588,0.049,1.18,0.145,1.76L312.091,180.204z M338.868,180.096l-2.725-0.424
				c0.086-0.553,0.129-1.115,0.129-1.676c0-0.568-0.045-1.141-0.135-1.703l2.725-0.43c0.111,0.701,0.168,1.42,0.168,2.133
				C339.03,178.698,338.976,179.405,338.868,180.096z M315.808,173.165l-2.467-1.234c0.633-1.268,1.463-2.426,2.463-3.443
				l1.969,1.934C316.974,171.233,316.312,172.155,315.808,173.165z M335.095,173.086c-0.512-1.002-1.18-1.92-1.986-2.727
				l1.857-2.043l0.092,0.092c1.012,1.012,1.85,2.164,2.492,3.424L335.095,173.086z M320.483,168.413l-1.275-2.447
				c1.266-0.656,2.617-1.109,4.023-1.344l0.453,2.721C322.565,167.53,321.487,167.889,320.483,168.413z M330.278,168.321
				c-1.014-0.502-2.096-0.844-3.219-1.01l0.402-2.727c1.41,0.207,2.771,0.635,4.045,1.266L330.278,168.321z"/>
		</g>
	</g>
	<g id="XMLID_306_">
		<g id="XMLID_343_">
			<path fill="#D2E9F7" d="M270.89,65.916V52.918c0-17.386-14.225-31.611-31.61-31.611l0,0c-17.386,0-31.61,14.225-31.61,31.611
				v24.753h51.465C265.626,77.671,270.89,72.408,270.89,65.916z"/>
		</g>
		<g id="XMLID_328_">
			<path id="XMLID_290_" fill="#5FB0E5" d="M269.796,198.62v-74.966c0-16.351-13.379-29.73-29.73-29.73l0,0
				c-16.35,0-29.73,13.379-29.73,29.73v74.966H269.796z"/>
		</g>
		<g id="XMLID_327_">
			<path id="XMLID_554_" fill="#0686D8" d="M259.101,102.691c-5.238-4.764-12-7.389-19.035-7.389
				c-6.759,0-13.317,2.446-18.467,6.887l-1.803-2.088c5.652-4.873,12.851-7.557,20.27-7.557c7.722,0,15.142,2.878,20.892,8.107
				L259.101,102.691z"/>
		</g>
		<g id="XMLID_326_">
			<path id="XMLID_553_" fill="#0686D8" d="M215.055,110.349l-2.431-1.304c0.915-1.707,1.996-3.34,3.216-4.852l2.147,1.729
				C216.876,107.303,215.89,108.792,215.055,110.349z"/>
		</g>
		<g id="XMLID_324_">
			<path id="XMLID_552_" fill="#0686D8" d="M211.717,198.62h-2.758v-74.966c0-2.399,0.278-4.794,0.825-7.114l2.684,0.633
				c-0.498,2.114-0.751,4.294-0.751,6.481V198.62z"/>
		</g>
		<g id="XMLID_323_">
			<path fill="#FFFFFF" d="M239.532,105.943L239.532,105.943c-3.58,0-6.48-2.901-6.48-6.481v-13.69c0-3.579,2.9-6.481,6.48-6.481
				l0,0c3.579,0,6.48,2.902,6.48,6.481v13.69C246.013,103.042,243.111,105.943,239.532,105.943z"/>
		</g>
		<g id="XMLID_319_">
			<path id="XMLID_549_" fill="#0686D8" d="M239.532,107.322c-4.333,0-7.859-3.526-7.859-7.86v-13.69c0-4.334,3.526-7.86,7.859-7.86
				c4.334,0,7.859,3.526,7.859,7.86v13.69C247.392,103.796,243.866,107.322,239.532,107.322z M239.532,80.67
				c-2.813,0-5.102,2.289-5.102,5.102v13.69c0,2.813,2.288,5.102,5.102,5.102c2.815,0,5.102-2.289,5.102-5.102v-13.69
				C244.634,82.959,242.347,80.67,239.532,80.67z"/>
		</g>
		<g id="XMLID_317_">
			<path fill="#FFFFFF" d="M264.536,39.037V66.44c0,13.752-11.252,25.004-25.004,25.004l0,0c-13.753,0-25.003-11.252-25.003-25.004
				V39.037H264.536z"/>
		</g>
		<g id="XMLID_316_">
			<path id="XMLID_548_" fill="#0686D8" d="M239.532,92.824c-14.547,0-26.383-11.836-26.383-26.384V51.317h2.759V66.44
				c0,13.027,10.599,23.625,23.624,23.625s23.625-10.599,23.625-23.625V46.405h2.758V66.44
				C265.915,80.988,254.079,92.824,239.532,92.824z"/>
		</g>
		<g id="XMLID_315_">
			<path id="XMLID_291_" fill="#D2E9F7" d="M267.591,53.5h-9.008c-8.363,0.254-19.073-9.007-19.073-14.611v4.462v11.803
				c0,17.599-14.242,31.878-31.841,31.926l0,0l1.356-34.21l4.813-15.696l52.055-1.233l1.697,7.537V53.5z"/>
		</g>
		<g id="XMLID_314_">
			<path id="XMLID_547_" fill="#0686D8" d="M207.673,88.301l-0.007-2.758c16.799-0.045,30.464-13.748,30.464-30.546V34.269h2.758
				c0,9.756,7.937,17.694,17.695,17.694h9.008v2.758h-9.008c-7.545,0-14.15-4.106-17.695-10.203v10.479
				C240.888,73.312,225.987,88.252,207.673,88.301z"/>
		</g>
		<g id="XMLID_313_">
			<path id="XMLID_546_" fill="#0686D8" d="M209.048,88.598h-2.758v-35.68c0-18.191,14.799-32.99,32.989-32.99
				s32.989,14.799,32.989,32.99v12.998c0,6.033-4.082,11.272-9.926,12.74l-0.672-2.676c4.615-1.159,7.84-5.298,7.84-10.064V52.918
				c0-16.67-13.562-30.232-30.231-30.232c-16.67,0-30.231,13.562-30.231,30.232V88.598z"/>
		</g>
		<g id="XMLID_312_">
			<rect id="XMLID_545_" x="244.444" y="59.216" fill="#0686D8" width="10.154" height="2.758"/>
		</g>
		<g id="XMLID_311_">
			<polygon id="XMLID_544_" fill="#0686D8" points="244.601,73.602 239.405,73.602 239.405,70.844 241.841,70.844 241.841,65.055 
				244.601,65.055 			"/>
		</g>
		<g id="XMLID_310_">
			<path id="XMLID_543_" fill="#0686D8" d="M240.775,83.904h-1.382c-1.946,0-3.83-0.703-5.303-1.979l-0.435-0.378l1.81-2.081
				l0.434,0.376c0.97,0.84,2.21,1.304,3.494,1.304h1.382c1.426,0,2.816-0.584,3.812-1.604l1.973,1.929
				C245.046,83.017,242.939,83.904,240.775,83.904z"/>
		</g>
		<g id="XMLID_309_">
			<path id="XMLID_542_" fill="#0686D8" d="M208.424,80.706l-1.089-2.536c11.247-4.824,18.515-15.849,18.515-28.086h2.758
				C228.607,63.426,220.685,75.445,208.424,80.706z"/>
		</g>
		<g id="XMLID_308_">
			<path id="XMLID_541_" fill="#0686D8" d="M207.675,72l-1.638-2.222c7.793-5.741,12.444-14.94,12.444-24.607h2.758
				C221.239,55.711,216.168,65.74,207.675,72z"/>
		</g>
	</g>
	<g id="XMLID_219_">
		<g id="XMLID_267_">
			<path id="XMLID_540_" fill="#0686D8" d="M381.165,79.05h-7.859c-0.762,0-1.379-0.618-1.379-1.379
				c0-0.762,0.617-1.379,1.379-1.379h7.859c0.762,0,1.379,0.618,1.379,1.379C382.544,78.433,381.927,79.05,381.165,79.05z"/>
		</g>
		<g id="XMLID_293_">
			<path id="XMLID_539_" fill="#0686D8" d="M377.235,82.98c-0.76,0-1.379-0.618-1.379-1.379v-7.86c0-0.761,0.619-1.379,1.379-1.379
				c0.762,0,1.381,0.618,1.381,1.379v7.86C378.616,82.363,377.997,82.98,377.235,82.98z"/>
		</g>
	</g>
	<g id="XMLID_341_">
		<g id="XMLID_371_">
			<path id="XMLID_538_" fill="#0686D8" d="M132.485,89.978h-7.86c-0.761,0-1.379-0.618-1.379-1.379
				c0-0.761,0.618-1.379,1.379-1.379h7.86c0.761,0,1.379,0.618,1.379,1.379C133.865,89.36,133.247,89.978,132.485,89.978z"/>
		</g>
		<g id="XMLID_345_">
			<path id="XMLID_537_" fill="#0686D8" d="M128.556,93.907c-0.761,0-1.379-0.618-1.379-1.379v-7.86
				c0-0.762,0.618-1.379,1.379-1.379c0.762,0,1.379,0.618,1.379,1.379v7.86C129.936,93.29,129.318,93.907,128.556,93.907z"/>
		</g>
	</g>
	<g id="XMLID_294_">
		<g id="XMLID_299_">
			<path id="XMLID_536_" fill="#0686D8" d="M237.288,8.314c-0.354,0-0.706-0.134-0.976-0.404c-0.538-0.539-0.538-1.412,0-1.95
				l5.558-5.558c0.539-0.539,1.412-0.539,1.951,0c0.537,0.539,0.537,1.411,0,1.95l-5.559,5.558
				C237.994,8.18,237.642,8.314,237.288,8.314z"/>
		</g>
		<g id="XMLID_302_">
			<path id="XMLID_535_" fill="#0686D8" d="M242.845,8.314c-0.354,0-0.705-0.134-0.975-0.404l-5.558-5.558
				c-0.538-0.539-0.538-1.412,0-1.95c0.539-0.539,1.412-0.539,1.95,0l5.559,5.558c0.537,0.539,0.537,1.412,0,1.95
				C243.552,8.18,243.199,8.314,242.845,8.314z"/>
		</g>
	</g>
	<g id="XMLID_331_">
		<g id="XMLID_335_">
			<path id="XMLID_534_" fill="#0686D8" d="M379.657,134.709c-0.354,0-0.707-0.135-0.975-0.403c-0.539-0.539-0.539-1.411,0-1.95
				l5.557-5.559c0.539-0.538,1.412-0.538,1.951,0c0.537,0.539,0.537,1.412,0,1.951l-5.559,5.558
				C380.362,134.575,380.011,134.709,379.657,134.709z"/>
		</g>
		<g id="XMLID_332_">
			<path id="XMLID_533_" fill="#0686D8" d="M385.214,134.709c-0.354,0-0.705-0.135-0.975-0.403l-5.557-5.558
				c-0.539-0.539-0.539-1.412,0-1.951c0.537-0.538,1.41-0.538,1.949,0l5.559,5.559c0.537,0.539,0.537,1.411,0,1.95
				C385.921,134.575,385.567,134.709,385.214,134.709z"/>
		</g>
	</g>
	<g id="XMLID_305_">
		<rect id="XMLID_531_" x="321.474" y="76.292" fill="#0686D8" width="40.117" height="2.758"/>
	</g>
	<g id="XMLID_307_">
		<rect id="XMLID_530_" x="182.207" y="2.777" fill="#0686D8" width="40.117" height="2.758"/>
	</g>
	<g id="XMLID_329_">
		<rect id="XMLID_525_" x="124.909" y="11.488" fill="#0686D8" width="75.017" height="2.758"/>
	</g>
	<g id="XMLID_330_">
		<rect id="XMLID_524_" x="310.603" y="76.292" fill="#0686D8" width="7.193" height="2.758"/>
	</g>
	<g id="XMLID_338_">
		<rect id="XMLID_523_" x="58.184" y="100.167" fill="#0686D8" width="40.116" height="2.758"/>
	</g>
	<g id="XMLID_339_">
		<rect id="XMLID_522_" x="77.606" y="87.219" fill="#0686D8" width="40.117" height="2.758"/>
	</g>
	<g id="XMLID_340_">
		<rect id="XMLID_521_" x="47.312" y="100.167" fill="#0686D8" width="7.194" height="2.758"/>
	</g>
	<g id="XMLID_344_">
		<circle id="XMLID_346_" fill="#0686D8" cx="286.681" cy="64.762" r="2.461"/>
	</g>
	<g id="XMLID_376_">
		<circle id="XMLID_348_" fill="#0686D8" cx="86.117" cy="32.422" r="2.461"/>
	</g>
	<g id="XMLID_347_">
		<circle id="XMLID_349_" fill="#0686D8" cx="83.657" cy="118.475" r="2.461"/>
	</g>
	<g id="XMLID_350_">
		<circle id="XMLID_351_" fill="#0686D8" cx="171.248" cy="45.134" r="1.697"/>
	</g>
	<g id="XMLID_375_">
		<circle id="XMLID_353_" fill="#0686D8" cx="289.464" cy="12.867" r="1.697"/>
	</g>
	<g id="XMLID_352_">
		<circle id="XMLID_354_" fill="#0686D8" cx="363.663" cy="120.172" r="1.697"/>
	</g>
	<g id="XMLID_378_" opacity="0.3">
		<g id="XMLID_385_">
			<path id="XMLID_357_" fill="#0686D8" d="M209.048,88.598v-0.371c2.106-0.092,4.161-0.383,6.149-0.847
				c-1.153-0.854-2.504-1.449-3.969-1.681c-1.545-0.245-3.207-0.402-4.938-0.505v3.403H209.048z"/>
		</g>
		<g id="XMLID_395_">
			<path id="XMLID_358_" fill="#0686D8" d="M220.713,101.163c-1.375,1.187-2.646,2.489-3.787,3.905l-1.086-0.875
				c-1.22,1.512-2.301,3.145-3.216,4.852l1.223,0.656c-1.196,2.232-2.096,4.639-2.692,7.162l-1.37-0.324
				c-0.547,2.32-0.825,4.715-0.825,7.114v33.173c5.147-3.477,9.034-8.682,10.794-14.795c2.086-0.348,3.685-2.15,3.685-4.301
				l1.081-38.411c0-0.872-0.185-1.605-0.531-2.207c-1.462,0.887-2.881,1.858-4.191,2.988L220.713,101.163z"/>
		</g>
		<g id="XMLID_399_">
			<path id="XMLID_359_" fill="#0686D8" d="M229.586,198.62v-9.662c0-12.303-8.469-22.902-20.627-27.748v37.41h2.758h15.111H229.586
				z"/>
		</g>
	</g>
	<g id="XMLID_355_">
		<g id="XMLID_382_">
			<path id="XMLID_361_" fill="#D2E9F7" d="M224.529,198.62v-9.662c0-16.062-15.317-29.205-34.038-29.205l0,0
				c-18.721,0-34.038,13.143-34.038,29.205v9.662H224.529z"/>
		</g>
		<g id="XMLID_380_">
			<g id="XMLID_381_">
				<rect id="XMLID_363_" x="156.969" y="188.567" fill="#FFFFFF" width="67.561" height="6.062"/>
			</g>
		</g>
		<g id="XMLID_370_">
			<path id="XMLID_520_" fill="#0686D8" d="M157.832,198.62h-2.758v-9.662c0-2.459,0.343-4.912,1.02-7.289l2.654,0.758
				c-0.608,2.129-0.916,4.328-0.916,6.531V198.62z"/>
		</g>
		<g id="XMLID_369_">
			<path id="XMLID_519_" fill="#0686D8" d="M161.061,176.938l-2.398-1.361c1.688-2.973,3.911-5.682,6.611-8.047l1.817,2.072
				C164.625,171.766,162.597,174.235,161.061,176.938z"/>
		</g>
		<g id="XMLID_368_">
			<path id="XMLID_502_" fill="#0686D8" d="M225.908,198.62h-2.758v-9.662c0-15.344-14.651-27.824-32.659-27.824
				c-6.664,0-13.084,1.719-18.568,4.973l-1.407-2.373c5.909-3.506,12.817-5.359,19.976-5.359c19.528,0,35.417,13.721,35.417,30.584
				V198.62z"/>
		</g>
		<g id="XMLID_367_">
			<path id="XMLID_362_" fill="#5FB0E5" d="M166.601,140.727h-0.88c-1.749,0-3.166-1.418-3.166-3.166l-1.081-33.187
				c0-3.6,1.636-4.458,4.446-6.709l3.896-3.122c-10.112-6.296-7.447-11.57-7.447-11.57c4.662,6.994,30.056,1.795,44.821,4.066
				c3.5,0.538,6.221,3.317,6.677,6.828l0.357,2.763l0,0c2.893,0,5.238-0.204,5.238,2.689l-1.081,38.241
				c0,1.748-1.417,3.166-3.166,3.166H166.601z"/>
		</g>
		<g id="XMLID_356_">
			<path id="XMLID_471_" fill="#0686D8" d="M215.348,142.106h-49.76c-2.434,0-4.412-1.98-4.412-4.413l-1.081-33.272
				c0.041-4.158,2.524-7.924,6.326-9.765l0.629-0.304c-5.102-3.688-7.147-7.538-6.082-11.462l0.236-1.085l1.875-0.146l0.469,0.598
				c2.518,3.659,13.33,3.317,23.781,2.986c7.093-0.225,14.432-0.455,20.222,0.459c3.995,0.631,7.154,3.917,7.684,7.99l0.201,1.559
				c1.717,0.006,3.299,0.124,4.369,1.19c0.688,0.684,1.036,1.653,1.036,2.88l-1.081,38.411
				C219.76,140.125,217.781,142.106,215.348,142.106z M163.571,85.878c0.516,2.416,2.85,4.927,6.973,7.494l2.123,1.322l-5.043,2.443
				c-2.867,1.389-4.74,4.193-4.771,7.144l1.08,33.367c0,0.957,0.742,1.7,1.654,1.7h49.76c0.912,0,1.654-0.743,1.654-1.655
				l1.081-38.412c0-0.282-0.04-0.703-0.225-0.887c-0.397-0.398-1.813-0.39-3.093-0.386l-1.754,0.002l-0.514-3.965
				c-0.372-2.868-2.584-5.179-5.378-5.621c-5.531-0.875-12.735-0.646-19.705-0.427C177.268,88.321,168.262,88.604,163.571,85.878z"
				/>
		</g>
		<g id="XMLID_366_">
			<path fill="#FFFFFF" d="M191.649,173.245h-3.725c-2.663,0-4.821-2.158-4.821-4.822v-17.842c0-2.663,2.158-4.822,4.821-4.822
				h3.725c2.663,0,4.821,2.159,4.821,4.822v17.842C196.471,171.086,194.312,173.245,191.649,173.245z"/>
		</g>
		<g id="XMLID_373_">
			<path id="XMLID_462_" fill="#0686D8" d="M191.649,174.624h-3.725c-3.419,0-6.2-2.781-6.2-6.201v-17.842
				c0-3.42,2.781-6.201,6.2-6.201h3.725c3.419,0,6.2,2.781,6.2,6.201v17.842C197.85,171.842,195.068,174.624,191.649,174.624z
				 M187.925,147.137c-1.897,0-3.442,1.545-3.442,3.443v17.842c0,1.898,1.545,3.443,3.442,3.443h3.725
				c1.898,0,3.442-1.545,3.442-3.443v-17.842c0-1.898-1.544-3.443-3.442-3.443H187.925z"/>
		</g>
		<g id="XMLID_374_">
			<path id="XMLID_377_" fill="#FFFFFF" d="M190.339,160.057L190.339,160.057c-13.98,0-25.417-11.438-25.417-25.416v-17.229
				c0-13.979,11.437-22.869,25.417-22.869l0,0c13.979,0,25.416,8.889,25.416,22.869v17.229
				C215.755,148.62,204.318,160.057,190.339,160.057z"/>
		</g>
		<g id="XMLID_383_">
			<path id="XMLID_458_" fill="#0686D8" d="M190.339,161.436c-14.775,0-26.796-12.02-26.796-26.795v-17.229
				c0-14.05,11.27-24.248,26.796-24.248c15.525,0,26.796,10.198,26.796,24.248v17.229
				C217.135,149.417,205.114,161.436,190.339,161.436z M190.339,95.922c-13.928,0-24.038,9.038-24.038,21.489v17.229
				c0,13.254,10.783,24.037,24.038,24.037c13.254,0,24.037-10.783,24.037-24.037v-17.229
				C214.376,104.96,204.267,95.922,190.339,95.922z"/>
		</g>
		<g id="XMLID_384_">
			<path id="XMLID_386_" fill="#5FB0E5" d="M217.174,100.429l-6.583-2.781c0.605-0.662-0.309-1.601,0-2.479
				c2.2-6.245-10.008-3.652-10.008-3.652s-14.075-5.808-30.143,6.259l-8.023,11.853c0,0,23.322,6.623,41.856-9.848
				c0.195,5.023,1.453,12.366,12.9,14.769v-9.214V100.429z"/>
		</g>
		<g id="XMLID_387_">
			<path id="XMLID_450_" fill="#0686D8" d="M217.916,116.139c-10.812-2.27-13.973-8.898-14.781-13.784
				c-18.731,14.528-40.94,8.164-41.907,7.878l0.785-2.645c0.229,0.068,23.111,6.592,41.006-8.694
				c0.472-0.403,1.116-0.499,1.683-0.256c0.563,0.243,0.932,0.777,0.96,1.393c0.223,4.938,2.629,11.268,12.822,13.409
				L217.916,116.139z"/>
		</g>
		<g id="XMLID_394_">
			<path id="XMLID_446_" fill="#0686D8" d="M183.859,133.25H168.82c-2.789,0-5.057-2.269-5.057-5.057v-8.115
				c0-2.789,2.268-5.057,5.057-5.057h15.039c2.789,0,5.057,2.268,5.057,5.057v8.115C188.916,130.982,186.648,133.25,183.859,133.25z
				 M168.82,117.78c-1.268,0-2.299,1.031-2.299,2.299v8.115c0,1.268,1.031,2.299,2.299,2.299h15.039
				c1.268,0,2.299-1.031,2.299-2.299v-8.115c0-1.268-1.031-2.299-2.299-2.299H168.82z"/>
		</g>
		<g id="XMLID_398_">
			<path id="XMLID_439_" fill="#0686D8" d="M211.841,133.25H196.8c-2.789,0-5.057-2.269-5.057-5.057v-8.115
				c0-2.789,2.268-5.057,5.057-5.057h15.041c2.789,0,5.057,2.268,5.057,5.057v8.115C216.897,130.982,214.63,133.25,211.841,133.25z
				 M196.8,117.78c-1.268,0-2.299,1.031-2.299,2.299v8.115c0,1.268,1.031,2.299,2.299,2.299h15.041c1.268,0,2.299-1.031,2.299-2.299
				v-8.115c0-1.268-1.031-2.299-2.299-2.299H196.8z"/>
		</g>
		<g id="XMLID_400_">
			<rect id="XMLID_438_" x="187.537" y="122.758" fill="#0686D8" width="4.956" height="2.758"/>
		</g>
		<g id="XMLID_409_">
			<rect id="XMLID_437_" x="173.798" y="122.758" fill="#0686D8" width="5.084" height="2.758"/>
		</g>
		<g id="XMLID_410_">
			<rect id="XMLID_436_" x="201.779" y="122.758" fill="#0686D8" width="5.082" height="2.758"/>
		</g>
		<g id="XMLID_411_">
			<polygon id="XMLID_429_" fill="#0686D8" points="196.524,143.164 189.213,143.164 189.213,126.026 191.971,126.026 
				191.971,140.405 196.524,140.405 			"/>
		</g>
		<g id="XMLID_412_">
			<polygon id="XMLID_428_" fill="#0686D8" points="198.082,151.286 183.206,151.286 183.206,148.528 197.094,148.528 
				200.906,145.389 202.659,147.519 			"/>
		</g>
	</g>
	<g id="XMLID_413_" opacity="0.3">
		<path id="XMLID_414_" fill="#0686D8" d="M260.005,101.696l0.953-1.045c-0.131-0.117-0.266-0.223-0.396-0.337
			c-5.242,4.134-8.693,10.448-8.98,17.649l-0.143,3.414c-0.473-0.172-0.977-0.281-1.508-0.281c-2.434,0-4.416,1.982-4.416,4.419
			v2.946c0,2.436,1.982,4.418,4.416,4.418c0.355,0,0.699-0.055,1.029-0.134l-0.816,19.475c-0.061,1.44,0.453,2.81,1.453,3.851
			c0.998,1.043,2.342,1.617,3.787,1.617h9.344l-0.174,1.947c-3.52,0.9-6.879,2.27-9.963,4.098l0.711,1.197
			c-1.812,1.076-3.498,2.299-5.035,3.646l-0.918-1.047c-2.703,2.369-4.926,5.078-6.611,8.047l1.232,0.699
			c-1.039,1.832-1.859,3.766-2.435,5.783l-1.365-0.391c-0.676,2.377-1.019,4.83-1.019,7.289v9.662h2.757h27.888v-74.966
			C269.796,114.967,265.997,107.145,260.005,101.696z"/>
	</g>
	<g id="XMLID_464_">
		<g id="XMLID_465_">
			<path id="XMLID_466_" fill="#FFFFFF" d="M306.665,128.461c0,1.678-1.361,3.039-3.037,3.039l0,0c-1.682,0-3.039-1.361-3.039-3.039
				v-2.947c0-1.68,1.357-3.039,3.039-3.039l0,0c1.676,0,3.037,1.359,3.037,3.039V128.461z"/>
		</g>
		<g id="XMLID_467_">
			<path id="XMLID_469_" fill="#0686D8" d="M303.628,132.879c-2.436,0-4.418-1.982-4.418-4.418v-2.946
				c0-2.437,1.982-4.419,4.418-4.419c2.434,0,4.416,1.982,4.416,4.419v2.946C308.044,130.897,306.062,132.879,303.628,132.879z
				 M303.628,123.854c-0.914,0-1.66,0.745-1.66,1.661v2.946c0,0.916,0.746,1.66,1.66,1.66s1.658-0.744,1.658-1.66v-2.946
				C305.286,124.599,304.542,123.854,303.628,123.854z"/>
		</g>
		<g id="XMLID_946_">
			<path id="XMLID_947_" fill="#FFFFFF" d="M256.647,128.461c0,1.678-1.361,3.039-3.039,3.039l0,0c-1.678,0-3.037-1.361-3.037-3.039
				v-2.947c0-1.68,1.359-3.039,3.037-3.039l0,0c1.678,0,3.039,1.359,3.039,3.039V128.461z"/>
		</g>
		<g id="XMLID_948_">
			<path id="XMLID_949_" fill="#0686D8" d="M253.608,132.879c-2.434,0-4.418-1.982-4.418-4.418v-2.946
				c0-2.437,1.984-4.419,4.418-4.419c2.436,0,4.418,1.982,4.418,4.419v2.946C258.026,130.897,256.044,132.879,253.608,132.879z
				 M253.608,123.854c-0.914,0-1.658,0.745-1.658,1.661v2.946c0,0.916,0.744,1.66,1.658,1.66s1.66-0.744,1.66-1.66v-2.946
				C255.269,124.599,254.522,123.854,253.608,123.854z"/>
		</g>
		<g id="XMLID_952_">
			<path id="XMLID_953_" fill="#D2E9F7" d="M312.282,198.62v-9.662c0-16.062-15.316-29.205-34.037-29.205l0,0
				c-18.723,0-34.039,13.143-34.039,29.205v9.662H312.282z"/>
		</g>
		<g id="XMLID_954_">
			<path id="XMLID_955_" fill="#0686D8" d="M245.585,198.62h-2.757v-9.662c0-2.459,0.344-4.912,1.019-7.289l2.654,0.758
				c-0.607,2.129-0.916,4.328-0.916,6.531V198.62z"/>
		</g>
		<g id="XMLID_956_">
			<path id="XMLID_957_" fill="#0686D8" d="M248.813,176.938l-2.398-1.361c1.684-2.969,3.908-5.678,6.611-8.047l1.818,2.072
				C252.376,171.768,250.347,174.237,248.813,176.938z"/>
		</g>
		<g id="XMLID_958_">
			<path id="XMLID_959_" fill="#0686D8" d="M313.661,198.62h-2.758v-9.662c0-15.344-14.65-27.824-32.658-27.824
				c-6.664,0-13.084,1.719-18.568,4.973l-1.408-2.373c5.91-3.506,12.818-5.359,19.977-5.359c19.527,0,35.416,13.721,35.416,30.584
				V198.62z"/>
		</g>
		<g id="XMLID_960_">
			<polygon fill="#FFFFFF" points="286.681,173.245 268.399,173.245 270.856,145.759 270.856,145.758 284.224,145.758 			"/>
		</g>
		<g id="XMLID_961_">
			<path id="XMLID_962_" fill="#0686D8" d="M288.188,174.624h-21.297l2.705-30.244h15.889L288.188,174.624z M269.909,171.866h15.264
				l-2.209-24.729h-10.846L269.909,171.866z"/>
		</g>
		<g id="XMLID_965_">
			<path id="XMLID_966_" fill="#FFFFFF" d="M298.769,156.309h-39.707c-2.199,0-3.957-1.834-3.863-4.03l1.438-34.259
				c0.48-11.956,10.314-21.401,22.279-21.401l0,0c11.967,0,21.797,9.445,22.277,21.401l1.439,34.259
				C302.724,154.475,300.968,156.309,298.769,156.309z"/>
		</g>
		<g id="XMLID_967_">
			<path id="XMLID_968_" fill="#0686D8" d="M298.769,157.688h-39.707c-1.445,0-2.789-0.574-3.787-1.617
				c-1-1.041-1.516-2.41-1.453-3.851l1.438-34.257c0.51-12.741,10.902-22.724,23.656-22.724c12.752,0,23.145,9.982,23.654,22.726
				l1.439,34.255c0.062,1.442-0.455,2.812-1.453,3.853C301.556,157.114,300.212,157.688,298.769,157.688z M278.915,97.998
				c-11.27,0-20.449,8.819-20.9,20.079l-1.439,34.26c-0.029,0.684,0.215,1.332,0.689,1.826s1.111,0.767,1.797,0.767h39.707
				c0.684,0,1.32-0.272,1.795-0.767c0.475-0.493,0.721-1.143,0.691-1.826l-1.439-34.258
				C299.362,106.817,290.183,97.998,278.915,97.998z"/>
		</g>
		<g id="XMLID_971_">
			<rect id="XMLID_972_" x="262.972" y="118.793" fill="#0686D8" width="12.188" height="2.758"/>
		</g>
		<g id="XMLID_973_">
			<rect id="XMLID_974_" x="267.575" y="123.398" fill="#0686D8" width="3.152" height="2.759"/>
		</g>
		<g id="XMLID_975_">
			<rect id="XMLID_976_" x="285.995" y="123.398" fill="#0686D8" width="3.15" height="2.759"/>
		</g>
		<g id="XMLID_977_">
			<rect id="XMLID_978_" x="281.392" y="118.793" fill="#0686D8" width="12.188" height="2.758"/>
		</g>
		<g id="XMLID_979_">
			<polygon id="XMLID_980_" fill="#0686D8" points="280.294,138.027 272.751,138.027 272.751,135.268 277.536,135.268 
				277.536,119.019 280.294,119.019 			"/>
		</g>
		<g id="XMLID_981_">
			<path id="XMLID_982_" fill="#0686D8" d="M281.019,148.084h-10.35v-2.758h10.35c2.5,0,4.941-0.873,6.875-2.457l0.695-0.572
				l1.75,2.133l-0.697,0.571C287.216,146.991,284.155,148.084,281.019,148.084z"/>
		</g>
		<g id="XMLID_983_">
			<path fill="#5FB0E5" d="M285.731,103.035c-2.52,5.685-12.809,2.944-11.717,7.125c0.527,2.018-5.113-7.778-2.596-13.463
				c2.52-5.687,7.766-8.876,11.715-7.125C287.087,91.322,288.249,97.35,285.731,103.035z"/>
		</g>
		<g id="XMLID_984_">
			<path id="XMLID_985_" fill="#0686D8" d="M273.892,112.134l-0.846-0.701c-1.201-1.045-5.332-9.778-2.885-15.295
				c1.33-3.005,3.41-5.48,5.861-6.971c2.611-1.588,5.334-1.895,7.67-0.856c2.336,1.034,3.941,3.256,4.52,6.255
				c0.543,2.816,0.109,6.023-1.223,9.027l0,0c-1.6,3.616-5.613,4.408-8.541,4.988c-1.09,0.215-2.908,0.575-3.133,0.961l0,0
				c0,0-0.016,0.076,0.035,0.269c0.287,1.103-0.318,1.617-0.594,1.788L273.892,112.134z M280.819,90.47
				c-1.066,0-2.213,0.355-3.363,1.053c-1.973,1.202-3.67,3.237-4.775,5.732c-1.256,2.838-0.01,7.27,1.111,9.963
				c1.002-0.726,2.477-1.017,4.121-1.342c2.594-0.514,5.533-1.095,6.555-3.399l0,0c1.107-2.495,1.473-5.119,1.037-7.388
				c-0.402-2.086-1.441-3.599-2.93-4.257C282.03,90.591,281.438,90.47,280.819,90.47z"/>
		</g>
		<g id="XMLID_988_">
			<polygon id="XMLID_989_" fill="#0686D8" points="255.546,190.461 243.659,185.311 244.755,182.782 255.546,187.456 
				266.884,182.543 278.222,187.456 289.569,182.543 300.927,187.456 311.735,182.78 312.831,185.313 300.927,190.461 
				289.569,185.549 278.222,190.461 266.884,185.549 			"/>
		</g>
		<g id="XMLID_990_">
			<polygon id="XMLID_991_" fill="#0686D8" points="255.546,197.829 243.659,192.68 244.755,190.149 255.546,194.823 
				266.884,189.913 278.222,194.823 289.569,189.913 300.927,194.825 311.735,190.149 312.831,192.68 300.927,197.829 
				289.569,192.918 278.222,197.829 266.884,192.918 			"/>
		</g>
	</g>
	<g id="XMLID_992_">
		<g id="XMLID_993_">
			<rect id="XMLID_994_" x="72.806" y="197.241" fill="#0686D8" width="5.037" height="2.758"/>
		</g>
		<g id="XMLID_995_">
			<rect id="XMLID_996_" x="385.31" y="197.241" fill="#0686D8" width="11.123" height="2.758"/>
		</g>
		<g id="XMLID_997_">
			<rect id="XMLID_998_" x="81.196" y="197.241" fill="#0686D8" width="301.241" height="2.758"/>
		</g>
	</g>
</g>
</svg>
